SplineFontDB: 3.2
FontName: ssu5p
FullName: ssu5p
FamilyName: ssu5p
Weight: Regular
Copyright: 
Version: 1.000
ItalicAngle: 0
UnderlinePosition: -714
UnderlineWidth: 102
Ascent: 1638
Descent: 410
InvalidEm: 0
sfntRevision: 0x00010000
LayerCount: 2
Layer: 0 1 "Back" 1
Layer: 1 1 "Fore" 0
XUID: [1021 467 -1121320856 13690076]
StyleMap: 0x0040
FSType: 4
OS2Version: 4
OS2_WeightWidthSlopeOnly: 0
OS2_UseTypoMetrics: 0
CreationTime: 1542437498
ModificationTime: 1623622477
PfmFamily: 81
TTFWeight: 400
TTFWidth: 5
LineGap: 0
VLineGap: 0
Panose: 0 0 0 0 0 0 0 0 0 0
OS2TypoAscent: 1638
OS2TypoAOffset: 0
OS2TypoDescent: -410
OS2TypoDOffset: 0
OS2TypoLinegap: 0
OS2WinAscent: 1770
OS2WinAOffset: 0
OS2WinDescent: 357
OS2WinDOffset: 0
HheadAscent: 1770
HheadAOffset: 0
HheadDescent: -357
HheadDOffset: 0
OS2SubXSize: 1331
OS2SubYSize: 1432
OS2SubXOff: 0
OS2SubYOff: 287
OS2SupXSize: 1331
OS2SupYSize: 1432
OS2SupXOff: 0
OS2SupYOff: 981
OS2StrikeYSize: 100
OS2StrikeYPos: 528
OS2CapHeight: 700
OS2XHeight: 701
OS2Vendor: 'XXXX'
OS2CodePages: 00000003.00000000
OS2UnicodeRanges: a0000007.10000002.00000000.00000000
MarkAttachClasses: 1
DEI: 91125
TtTable: prep
PUSHW_1
 511
SCANCTRL
PUSHB_1
 1
SCANTYPE
SVTCA[y-axis]
MPPEM
PUSHB_1
 8
LT
IF
PUSHB_2
 1
 1
INSTCTRL
EIF
PUSHB_2
 70
 6
CALL
IF
POP
PUSHB_1
 16
EIF
MPPEM
PUSHB_1
 20
GT
IF
POP
PUSHB_1
 128
EIF
SCVTCI
PUSHB_1
 6
CALL
NOT
IF
SVTCA[y-axis]
PUSHB_1
 3
DUP
RCVT
PUSHB_1
 3
CALL
WCVTP
PUSHB_1
 4
DUP
RCVT
PUSHW_3
 3
 1063
 2
CALL
PUSHB_1
 3
CALL
WCVTP
SVTCA[x-axis]
PUSHB_1
 5
DUP
RCVT
PUSHB_1
 3
CALL
WCVTP
PUSHB_1
 6
DUP
RCVT
PUSHW_3
 5
 1063
 2
CALL
PUSHB_2
 3
 70
SROUND
CALL
WCVTP
EIF
PUSHB_1
 20
CALL
EndTTInstrs
TtTable: fpgm
PUSHB_1
 0
FDEF
PUSHB_1
 0
SZP0
MPPEM
PUSHB_1
 76
LT
IF
PUSHB_1
 74
SROUND
EIF
PUSHB_1
 0
SWAP
MIAP[rnd]
RTG
PUSHB_1
 6
CALL
IF
RTDG
EIF
MPPEM
PUSHB_1
 76
LT
IF
RDTG
EIF
DUP
MDRP[rp0,rnd,grey]
PUSHB_1
 1
SZP0
MDAP[no-rnd]
RTG
ENDF
PUSHB_1
 1
FDEF
DUP
MDRP[rp0,min,white]
PUSHB_1
 12
CALL
ENDF
PUSHB_1
 2
FDEF
MPPEM
GT

StartChar: .notdef
Encoding: 65536 -1 0
Width: 748
Flags: W
LayerCount: 2
Fore
SplineSet
68 0 m 1,0,-1
 68 1365 l 1,1,-1
 612 1365 l 1,2,-1
 612 0 l 1,3,-1
 68 0 l 1,0,-1
136 68 m 1,4,-1
 544 68 l 1,5,-1
 544 1297 l 1,6,-1
 136 1297 l 1,7,-1
 136 68 l 1,4,-1
EndSplineSet
EndChar

StartChar: exclam
Encoding: 33 33 6
Width: 1028
GlyphClass: 2
Flags: W
LayerCount: 2
Fore
SplineSet
431.192382812 969.342773438 m 132,-1,1
 406.243164062 994.819335938 406.243164062 994.819335938 406.114257812 1033.34667969 c 4,2,3
 406.243164062 1071.81933594 406.243164062 1071.81933594 438.907226562 1103.375 c 4,4,5
 471.243164062 1134.81933594 471.243164062 1134.81933594 518 1135 c 4,6,7
 564.243164062 1134.81933594 564.243164062 1134.81933594 590.33984375 1107.13964844 c 4,8,9
 616.243164062 1078.81933594 616.243164062 1078.81933594 616.3828125 1041.62988281 c 4,10,11
 616.243164062 1003.81933594 616.243164062 1003.81933594 584.552734375 973.861328125 c 4,12,13
 552.243164062 943.819335938 552.243164062 943.819335938 504.497070312 943.7421875 c 4,14,0
 456.243164062 943.819335938 456.243164062 943.819335938 431.192382812 969.342773438 c 132,-1,1
430.94921875 317.5234375 m 132,-1,16
 406 343 406 343 405.87109375 381.52734375 c 4,17,18
 406 420 406 420 438.6640625 451.555664062 c 4,19,20
 471 483 471 483 517.756835938 483.180664062 c 4,21,22
 564 483 564 483 590.096679688 455.3203125 c 4,23,24
 616 427 616 427 616.139648438 389.810546875 c 4,25,26
 616 352 616 352 584.309570312 322.041992188 c 4,27,28
 552 292 552 292 504.25390625 291.922851562 c 4,29,15
 456 292 456 292 430.94921875 317.5234375 c 132,-1,16
221 65 m 1,30,-1
 286 131 l 1,31,-1
 742 131 l 1,32,-1
 807 65 l 1,33,-1
 742 0 l 1,34,-1
 286 0 l 1,35,-1
 221 65 l 1,30,-1
775 163 m 1,36,-1
 775 619 l 1,37,-1
 840 684 l 1,38,-1
 905 619 l 1,39,-1
 905 163 l 1,40,-1
 840 98 l 1,41,-1
 775 163 l 1,36,-1
775 815 m 1,42,-1
 775 1271 l 1,43,-1
 840 1336 l 1,44,-1
 905 1271 l 1,45,-1
 905 815 l 1,46,-1
 840 750 l 1,47,-1
 775 815 l 1,42,-1
EndSplineSet
EndChar

StartChar: quotedbl
Encoding: 34 34 7
AltUni2: 00201c.ffffffff.0
Width: 1028
GlyphClass: 2
Flags: W
LayerCount: 2
Fore
SplineSet
123 815 m 1,0,-1
 123 1271 l 1,1,-1
 188 1336 l 1,2,-1
 253 1271 l 1,3,-1
 253 815 l 1,4,-1
 188 750 l 1,5,-1
 123 815 l 1,0,-1
775 815 m 1,6,-1
 775 1271 l 1,7,-1
 840 1336 l 1,8,-1
 905 1271 l 1,9,-1
 905 815 l 1,10,-1
 840 750 l 1,11,-1
 775 815 l 1,6,-1
EndSplineSet
EndChar

StartChar: numbersign
Encoding: 35 35 8
Width: 1028
GlyphClass: 2
Flags: W
LayerCount: 2
Fore
SplineSet
431.192382812 969.342773438 m 132,-1,1
 406.243164062 994.819335938 406.243164062 994.819335938 406.114257812 1033.34667969 c 4,2,3
 406.243164062 1071.81933594 406.243164062 1071.81933594 438.907226562 1103.375 c 4,4,5
 471.243164062 1134.81933594 471.243164062 1134.81933594 518 1135 c 4,6,7
 564.243164062 1134.81933594 564.243164062 1134.81933594 590.33984375 1107.13964844 c 4,8,9
 616.243164062 1078.81933594 616.243164062 1078.81933594 616.3828125 1041.62988281 c 4,10,11
 616.243164062 1003.81933594 616.243164062 1003.81933594 584.552734375 973.861328125 c 4,12,13
 552.243164062 943.819335938 552.243164062 943.819335938 504.497070312 943.7421875 c 4,14,0
 456.243164062 943.819335938 456.243164062 943.819335938 431.192382812 969.342773438 c 132,-1,1
430.94921875 317.5234375 m 132,-1,16
 406 343 406 343 405.87109375 381.52734375 c 4,17,18
 406 420 406 420 438.6640625 451.555664062 c 4,19,20
 471 483 471 483 517.756835938 483.180664062 c 4,21,22
 564 483 564 483 590.096679688 455.3203125 c 4,23,24
 616 427 616 427 616.139648438 389.810546875 c 4,25,26
 616 352 616 352 584.309570312 322.041992188 c 4,27,28
 552 292 552 292 504.25390625 291.922851562 c 4,29,15
 456 292 456 292 430.94921875 317.5234375 c 132,-1,16
123 65 m 1,30,-1
 123 619 l 1,31,-1
 188 684 l 1,32,-1
 253 619 l 1,33,-1
 253 65 l 1,34,-1
 188 0 l 1,35,-1
 123 65 l 1,30,-1
123 814 m 1,36,-1
 123 1368 l 1,37,-1
 188 1433 l 1,38,-1
 253 1368 l 1,39,-1
 253 814 l 1,40,-1
 188 749 l 1,41,-1
 123 814 l 1,36,-1
221 717 m 1,42,-1
 286 782 l 1,43,-1
 742 782 l 1,44,-1
 807 717 l 1,45,-1
 742 652 l 1,46,-1
 286 652 l 1,47,-1
 221 717 l 1,42,-1
775 65 m 1,48,-1
 775 619 l 1,49,-1
 840 684 l 1,50,-1
 905 619 l 1,51,-1
 905 65 l 1,52,-1
 840 0 l 1,53,-1
 775 65 l 1,48,-1
775 814 m 1,54,-1
 775 1368 l 1,55,-1
 840 1433 l 1,56,-1
 905 1368 l 1,57,-1
 905 814 l 1,58,-1
 840 749 l 1,59,-1
 775 814 l 1,54,-1
EndSplineSet
EndChar

StartChar: dollar
Encoding: 36 36 9
Width: 1028
GlyphClass: 2
Flags: W
LayerCount: 2
Fore
SplineSet
431.192382812 969.342773438 m 132,-1,1
 406.243164062 994.819335938 406.243164062 994.819335938 406.114257812 1033.34667969 c 4,2,3
 406.243164062 1071.81933594 406.243164062 1071.81933594 438.907226562 1103.375 c 4,4,5
 471.243164062 1134.81933594 471.243164062 1134.81933594 518 1135 c 4,6,7
 564.243164062 1134.81933594 564.243164062 1134.81933594 590.33984375 1107.13964844 c 4,8,9
 616.243164062 1078.81933594 616.243164062 1078.81933594 616.3828125 1041.62988281 c 4,10,11
 616.243164062 1003.81933594 616.243164062 1003.81933594 584.552734375 973.861328125 c 4,12,13
 552.243164062 943.819335938 552.243164062 943.819335938 504.497070312 943.7421875 c 4,14,0
 456.243164062 943.819335938 456.243164062 943.819335938 431.192382812 969.342773438 c 132,-1,1
430.94921875 317.5234375 m 132,-1,16
 406 343 406 343 405.87109375 381.52734375 c 4,17,18
 406 420 406 420 438.6640625 451.555664062 c 4,19,20
 471 483 471 483 517.756835938 483.180664062 c 4,21,22
 564 483 564 483 590.096679688 455.3203125 c 4,23,24
 616 427 616 427 616.139648438 389.810546875 c 4,25,26
 616 352 616 352 584.309570312 322.041992188 c 4,27,28
 552 292 552 292 504.25390625 291.922851562 c 4,29,15
 456 292 456 292 430.94921875 317.5234375 c 132,-1,16
123 815 m 1,30,-1
 123 1271 l 1,31,-1
 188 1336 l 1,32,-1
 253 1271 l 1,33,-1
 253 815 l 1,34,-1
 188 750 l 1,35,-1
 123 815 l 1,30,-1
221 65 m 1,36,-1
 286 131 l 1,37,-1
 742 131 l 1,38,-1
 807 65 l 1,39,-1
 742 0 l 1,40,-1
 286 0 l 1,41,-1
 221 65 l 1,36,-1
221 717 m 1,42,-1
 286 782 l 1,43,-1
 742 782 l 1,44,-1
 807 717 l 1,45,-1
 742 652 l 1,46,-1
 286 652 l 1,47,-1
 221 717 l 1,42,-1
221 1369 m 1,48,-1
 286 1434 l 1,49,-1
 742 1434 l 1,50,-1
 807 1369 l 1,51,-1
 742 1304 l 1,52,-1
 286 1304 l 1,53,-1
 221 1369 l 1,48,-1
775 163 m 1,54,-1
 775 619 l 1,55,-1
 840 684 l 1,56,-1
 905 619 l 1,57,-1
 905 163 l 1,58,-1
 840 98 l 1,59,-1
 775 163 l 1,54,-1
EndSplineSet
EndChar

StartChar: percent
Encoding: 37 37 10
Width: 1028
GlyphClass: 2
Flags: W
LayerCount: 2
Fore
SplineSet
431.192382812 969.342773438 m 132,-1,1
 406.243164062 994.819335938 406.243164062 994.819335938 406.114257812 1033.34667969 c 4,2,3
 406.243164062 1071.81933594 406.243164062 1071.81933594 438.907226562 1103.375 c 4,4,5
 471.243164062 1134.81933594 471.243164062 1134.81933594 518 1135 c 4,6,7
 564.243164062 1134.81933594 564.243164062 1134.81933594 590.33984375 1107.13964844 c 4,8,9
 616.243164062 1078.81933594 616.243164062 1078.81933594 616.3828125 1041.62988281 c 4,10,11
 616.243164062 1003.81933594 616.243164062 1003.81933594 584.552734375 973.861328125 c 4,12,13
 552.243164062 943.819335938 552.243164062 943.819335938 504.497070312 943.7421875 c 4,14,0
 456.243164062 943.819335938 456.243164062 943.819335938 431.192382812 969.342773438 c 132,-1,1
430.94921875 317.5234375 m 132,-1,16
 406 343 406 343 405.87109375 381.52734375 c 4,17,18
 406 420 406 420 438.6640625 451.555664062 c 4,19,20
 471 483 471 483 517.756835938 483.180664062 c 4,21,22
 564 483 564 483 590.096679688 455.3203125 c 4,23,24
 616 427 616 427 616.139648438 389.810546875 c 4,25,26
 616 352 616 352 584.309570312 322.041992188 c 4,27,28
 552 292 552 292 504.25390625 291.922851562 c 4,29,15
 456 292 456 292 430.94921875 317.5234375 c 132,-1,16
123 163 m 1,30,-1
 123 619 l 1,31,-1
 188 684 l 1,32,-1
 253 619 l 1,33,-1
 253 163 l 1,34,-1
 188 98 l 1,35,-1
 123 163 l 1,30,-1
221 717 m 1,36,-1
 286 782 l 1,37,-1
 742 782 l 1,38,-1
 807 717 l 1,39,-1
 742 652 l 1,40,-1
 286 652 l 1,41,-1
 221 717 l 1,36,-1
775 815 m 1,42,-1
 775 1271 l 1,43,-1
 840 1336 l 1,44,-1
 905 1271 l 1,45,-1
 905 815 l 1,46,-1
 840 750 l 1,47,-1
 775 815 l 1,42,-1
EndSplineSet
EndChar

StartChar: ampersand
Encoding: 38 38 11
Width: 1028
GlyphClass: 2
Flags: W
LayerCount: 2
Fore
SplineSet
391.4375 325.684570312 m 5,0,-1
 391.4375 441.014648438 l 5,1,-1
 522.25 539.65234375 l 5,2,-1
 655.075195312 441.014648438 l 5,3,-1
 655.075195312 325.684570312 l 5,4,-1
 522.25 227.047851562 l 5,5,-1
 391.4375 325.684570312 l 5,0,-1
391.4375 982.684570312 m 5,6,-1
 391.4375 1098.01464844 l 5,7,-1
 522.25 1196.65234375 l 5,8,-1
 655.075195312 1098.01464844 l 5,9,-1
 655.075195312 982.684570312 l 5,10,-1
 522.25 884.047851562 l 5,11,-1
 391.4375 982.684570312 l 5,6,-1
123 65 m 1,12,-1
 123 619 l 1,13,-1
 188 684 l 1,14,-1
 253 619 l 1,15,-1
 253 65 l 1,16,-1
 188 0 l 1,17,-1
 123 65 l 1,12,-1
123 814 m 1,18,-1
 123 1271 l 1,19,-1
 188 1336 l 1,20,-1
 253 1271 l 1,21,-1
 253 814 l 1,22,-1
 188 749 l 1,23,-1
 123 814 l 1,18,-1
221 717 m 1,24,-1
 286 782 l 1,25,-1
 742 782 l 1,26,-1
 807 717 l 1,27,-1
 742 652 l 1,28,-1
 286 652 l 1,29,-1
 221 717 l 1,24,-1
221 1368 m 1,30,-1
 286 1433 l 1,31,-1
 742 1433 l 1,32,-1
 807 1368 l 1,33,-1
 742 1303 l 1,34,-1
 286 1303 l 1,35,-1
 221 1368 l 1,30,-1
775 65 m 1,36,-1
 775 619 l 1,37,-1
 840 684 l 1,38,-1
 905 619 l 1,39,-1
 905 65 l 1,40,-1
 840 0 l 1,41,-1
 775 65 l 1,36,-1
775 814 m 1,42,-1
 775 1271 l 1,43,-1
 840 1336 l 1,44,-1
 905 1271 l 1,45,-1
 905 814 l 1,46,-1
 840 749 l 1,47,-1
 775 814 l 1,42,-1
EndSplineSet
EndChar

StartChar: parenleft
Encoding: 40 40 12
Width: 778
GlyphClass: 2
Flags: W
LayerCount: 2
Fore
SplineSet
391.4375 325.684570312 m 5,0,-1
 391.4375 441.014648438 l 5,1,-1
 522.25 539.65234375 l 5,2,-1
 655.075195312 441.014648438 l 5,3,-1
 655.075195312 325.684570312 l 5,4,-1
 522.25 227.047851562 l 5,5,-1
 391.4375 325.684570312 l 5,0,-1
391.4375 982.684570312 m 5,6,-1
 391.4375 1098.01464844 l 5,7,-1
 522.25 1196.65234375 l 5,8,-1
 655.075195312 1098.01464844 l 5,9,-1
 655.075195312 982.684570312 l 5,10,-1
 522.25 884.047851562 l 5,11,-1
 391.4375 982.684570312 l 5,6,-1
123 163 m 1,12,-1
 123 619 l 1,13,-1
 188 684 l 1,14,-1
 253 619 l 1,15,-1
 253 163 l 1,16,-1
 188 98 l 1,17,-1
 123 163 l 1,12,-1
123 815 m 1,18,-1
 123 1271 l 1,19,-1
 188 1336 l 1,20,-1
 253 1271 l 1,21,-1
 253 815 l 1,22,-1
 188 749 l 1,23,-1
 123 815 l 1,18,-1
221 65 m 1,24,-1
 286 130 l 1,25,-1
 589 130 l 1,26,-1
 654 65 l 1,27,-1
 589 0 l 1,28,-1
 286 0 l 1,29,-1
 221 65 l 1,24,-1
221 1368 m 1,30,-1
 286 1434 l 1,31,-1
 590 1434 l 1,32,-1
 655 1368 l 1,33,-1
 590 1303 l 1,34,-1
 286 1303 l 1,35,-1
 221 1368 l 1,30,-1
EndSplineSet
EndChar

StartChar: parenright
Encoding: 41 41 13
Width: 1028
GlyphClass: 2
Flags: W
LayerCount: 2
Fore
SplineSet
391.4375 325.684570312 m 1,0,-1
 391.4375 441.014648438 l 1,1,-1
 522.25 539.65234375 l 1,2,-1
 655.075195312 441.014648438 l 1,3,-1
 655.075195312 325.684570312 l 1,4,-1
 522.25 227.047851562 l 1,5,-1
 391.4375 325.684570312 l 1,0,-1
391.4375 982.684570312 m 1,6,-1
 391.4375 1098.01464844 l 1,7,-1
 522.25 1196.65234375 l 1,8,-1
 655.075195312 1098.01464844 l 1,9,-1
 655.075195312 982.684570312 l 1,10,-1
 522.25 884.047851562 l 1,11,-1
 391.4375 982.684570312 l 1,6,-1
221 65 m 1,12,-1
 286 131 l 1,13,-1
 742 131 l 1,14,-1
 807 65 l 1,15,-1
 742 0 l 1,16,-1
 286 0 l 1,17,-1
 221 65 l 1,12,-1
221 1369 m 1,18,-1
 286 1434 l 1,19,-1
 742 1434 l 1,20,-1
 807 1369 l 1,21,-1
 742 1304 l 1,22,-1
 286 1304 l 1,23,-1
 221 1369 l 1,18,-1
775 163 m 1,24,-1
 775 619 l 1,25,-1
 840 684 l 1,26,-1
 905 619 l 1,27,-1
 905 163 l 1,28,-1
 840 98 l 1,29,-1
 775 163 l 1,24,-1
775 815 m 1,30,-1
 775 1271 l 1,31,-1
 840 1336 l 1,32,-1
 905 1271 l 1,33,-1
 905 815 l 1,34,-1
 840 750 l 1,35,-1
 775 815 l 1,30,-1
EndSplineSet
EndChar

StartChar: asterisk
Encoding: 42 42 14
Width: 1028
GlyphClass: 2
Flags: W
LayerCount: 2
Fore
SplineSet
391.4375 325.684570312 m 1,0,-1
 391.4375 441.014648438 l 1,1,-1
 522.25 539.65234375 l 1,2,-1
 655.075195312 441.014648438 l 1,3,-1
 655.075195312 325.684570312 l 1,4,-1
 522.25 227.047851562 l 1,5,-1
 391.4375 325.684570312 l 1,0,-1
391.4375 982.684570312 m 1,6,-1
 391.4375 1098.01464844 l 1,7,-1
 522.25 1196.65234375 l 1,8,-1
 655.075195312 1098.01464844 l 1,9,-1
 655.075195312 982.684570312 l 1,10,-1
 522.25 884.047851562 l 1,11,-1
 391.4375 982.684570312 l 1,6,-1
123 815 m 1,12,-1
 123 1271 l 1,13,-1
 188 1336 l 1,14,-1
 253 1271 l 1,15,-1
 253 815 l 1,16,-1
 188 750 l 1,17,-1
 123 815 l 1,12,-1
221 1369 m 1,18,-1
 286 1434 l 1,19,-1
 742 1434 l 1,20,-1
 807 1369 l 1,21,-1
 742 1304 l 1,22,-1
 286 1304 l 1,23,-1
 221 1369 l 1,18,-1
775 815 m 1,24,-1
 775 1271 l 1,25,-1
 840 1336 l 1,26,-1
 905 1271 l 1,27,-1
 905 815 l 1,28,-1
 840 750 l 1,29,-1
 775 815 l 1,24,-1
EndSplineSet
EndChar

StartChar: plus
Encoding: 43 43 15
Width: 1028
GlyphClass: 2
Flags: W
LayerCount: 2
Fore
SplineSet
391.4375 325.684570312 m 5,0,-1
 391.4375 441.014648438 l 5,1,-1
 522.25 539.65234375 l 5,2,-1
 655.075195312 441.014648438 l 5,3,-1
 655.075195312 325.684570312 l 5,4,-1
 522.25 227.047851562 l 5,5,-1
 391.4375 325.684570312 l 5,0,-1
391.4375 982.684570312 m 5,6,-1
 391.4375 1098.01464844 l 5,7,-1
 522.25 1196.65234375 l 5,8,-1
 655.075195312 1098.01464844 l 5,9,-1
 655.075195312 982.684570312 l 5,10,-1
 522.25 884.047851562 l 5,11,-1
 391.4375 982.684570312 l 5,6,-1
123 65 m 1,12,-1
 123 619 l 1,13,-1
 188 684 l 1,14,-1
 253 619 l 1,15,-1
 253 65 l 1,16,-1
 188 0 l 1,17,-1
 123 65 l 1,12,-1
123 815 m 1,18,-1
 123 1271 l 1,19,-1
 188 1336 l 1,20,-1
 253 1271 l 1,21,-1
 253 815 l 1,22,-1
 188 749 l 1,23,-1
 123 815 l 1,18,-1
221 717 m 1,24,-1
 286 782 l 1,25,-1
 742 782 l 1,26,-1
 807 717 l 1,27,-1
 742 652 l 1,28,-1
 286 652 l 1,29,-1
 221 717 l 1,24,-1
221 1368 m 1,30,-1
 286 1434 l 1,31,-1
 742 1434 l 1,32,-1
 807 1368 l 1,33,-1
 742 1303 l 1,34,-1
 286 1303 l 1,35,-1
 221 1368 l 1,30,-1
775 815 m 1,36,-1
 775 1271 l 1,37,-1
 840 1336 l 1,38,-1
 905 1271 l 1,39,-1
 905 815 l 1,40,-1
 840 749 l 1,41,-1
 775 815 l 1,36,-1
EndSplineSet
EndChar

StartChar: comma
Encoding: 44 44 16
Width: 1028
GlyphClass: 2
Flags: W
LayerCount: 2
Fore
SplineSet
221 65 m 1,0,-1
 286 131 l 1,1,-1
 742 131 l 1,2,-1
 807 65 l 1,3,-1
 742 0 l 1,4,-1
 286 0 l 1,5,-1
 221 65 l 1,0,-1
775 163 m 1,6,-1
 775 619 l 1,7,-1
 840 684 l 1,8,-1
 905 619 l 1,9,-1
 905 163 l 1,10,-1
 840 98 l 1,11,-1
 775 163 l 1,6,-1
EndSplineSet
EndChar

StartChar: hyphen
Encoding: 45 45 17
Width: 1028
GlyphClass: 2
Flags: W
LayerCount: 2
Fore
SplineSet
221 717 m 1,0,-1
 286 782 l 1,1,-1
 742 782 l 1,2,-1
 807 717 l 1,3,-1
 742 652 l 1,4,-1
 286 652 l 1,5,-1
 221 717 l 1,0,-1
EndSplineSet
EndChar

StartChar: period
Encoding: 46 46 18
Width: 1028
GlyphClass: 2
Flags: W
LayerCount: 2
Fore
SplineSet
391.4375 325.684570312 m 1,0,-1
 391.4375 441.014648438 l 1,1,-1
 522.25 539.65234375 l 1,2,-1
 655.075195312 441.014648438 l 1,3,-1
 655.075195312 325.684570312 l 1,4,-1
 522.25 227.047851562 l 1,5,-1
 391.4375 325.684570312 l 1,0,-1
391.4375 982.684570312 m 1,6,-1
 391.4375 1098.01464844 l 1,7,-1
 522.25 1196.65234375 l 1,8,-1
 655.075195312 1098.01464844 l 1,9,-1
 655.075195312 982.684570312 l 1,10,-1
 522.25 884.047851562 l 1,11,-1
 391.4375 982.684570312 l 1,6,-1
221 65 m 1,12,-1
 286 131 l 1,13,-1
 742 131 l 1,14,-1
 807 65 l 1,15,-1
 742 0 l 1,16,-1
 286 0 l 1,17,-1
 221 65 l 1,12,-1
EndSplineSet
EndChar

StartChar: slash
Encoding: 47 47 19
Width: 1028
GlyphClass: 2
Flags: W
LayerCount: 2
Fore
SplineSet
391.4375 325.684570312 m 1,0,-1
 391.4375 441.014648438 l 1,1,-1
 522.25 539.65234375 l 1,2,-1
 655.075195312 441.014648438 l 1,3,-1
 655.075195312 325.684570312 l 1,4,-1
 522.25 227.047851562 l 1,5,-1
 391.4375 325.684570312 l 1,0,-1
391.4375 982.684570312 m 1,6,-1
 391.4375 1098.01464844 l 1,7,-1
 522.25 1196.65234375 l 1,8,-1
 655.075195312 1098.01464844 l 1,9,-1
 655.075195312 982.684570312 l 1,10,-1
 522.25 884.047851562 l 1,11,-1
 391.4375 982.684570312 l 1,6,-1
123 163 m 1,12,-1
 123 619 l 1,13,-1
 188 684 l 1,14,-1
 253 619 l 1,15,-1
 253 163 l 1,16,-1
 188 98 l 1,17,-1
 123 163 l 1,12,-1
221 717 m 1,18,-1
 286 782 l 1,19,-1
 742 782 l 1,20,-1
 807 717 l 1,21,-1
 742 652 l 1,22,-1
 286 652 l 1,23,-1
 221 717 l 1,18,-1
775 163 m 1,24,-1
 775 619 l 1,25,-1
 840 684 l 1,26,-1
 905 619 l 1,27,-1
 905 163 l 1,28,-1
 840 98 l 1,29,-1
 775 163 l 1,24,-1
EndSplineSet
EndChar

StartChar: zero
Encoding: 48 48 20
Width: 1028
GlyphClass: 2
Flags: W
LayerCount: 2
Fore
SplineSet
123 163 m 1,0,-1
 123 619 l 1,1,-1
 188 684 l 1,2,-1
 253 619 l 1,3,-1
 253 163 l 1,4,-1
 188 98 l 1,5,-1
 123 163 l 1,0,-1
123 815 m 1,6,-1
 123 1271 l 1,7,-1
 188 1336 l 1,8,-1
 253 1271 l 1,9,-1
 253 815 l 1,10,-1
 188 750 l 1,11,-1
 123 815 l 1,6,-1
221 65 m 1,12,-1
 286 131 l 1,13,-1
 742 131 l 1,14,-1
 807 65 l 1,15,-1
 742 0 l 1,16,-1
 286 0 l 1,17,-1
 221 65 l 1,12,-1
221 1369 m 1,18,-1
 286 1434 l 1,19,-1
 742 1434 l 1,20,-1
 807 1369 l 1,21,-1
 742 1304 l 1,22,-1
 286 1304 l 1,23,-1
 221 1369 l 1,18,-1
775 163 m 1,24,-1
 775 619 l 1,25,-1
 840 684 l 1,26,-1
 905 619 l 1,27,-1
 905 163 l 1,28,-1
 840 98 l 1,29,-1
 775 163 l 1,24,-1
775 815 m 1,30,-1
 775 1271 l 1,31,-1
 840 1336 l 1,32,-1
 905 1271 l 1,33,-1
 905 815 l 1,34,-1
 840 750 l 1,35,-1
 775 815 l 1,30,-1
EndSplineSet
EndChar

StartChar: one
Encoding: 49 49 21
Width: 376
GlyphClass: 2
Flags: W
LayerCount: 2
Fore
SplineSet
123 65 m 1,0,-1
 123 627 l 1,1,-1
 188 693 l 1,2,-1
 253 627 l 1,3,-1
 253 65 l 1,4,-1
 188 0 l 1,5,-1
 123 65 l 1,0,-1
123 823 m 1,6,-1
 123 1370 l 1,7,-1
 188 1436 l 1,8,-1
 253 1370 l 1,9,-1
 253 823 l 1,10,-1
 188 758 l 1,11,-1
 123 823 l 1,6,-1
EndSplineSet
EndChar

StartChar: two
Encoding: 50 50 22
Width: 1028
GlyphClass: 2
Flags: W
LayerCount: 2
Fore
SplineSet
123 163 m 1,0,-1
 123 619 l 1,1,-1
 188 684 l 1,2,-1
 253 619 l 1,3,-1
 253 163 l 1,4,-1
 188 98 l 1,5,-1
 123 163 l 1,0,-1
221 65 m 1,6,-1
 286 131 l 1,7,-1
 742 131 l 1,8,-1
 807 65 l 1,9,-1
 742 0 l 1,10,-1
 286 0 l 1,11,-1
 221 65 l 1,6,-1
221 717 m 1,12,-1
 286 782 l 1,13,-1
 742 782 l 1,14,-1
 807 717 l 1,15,-1
 742 652 l 1,16,-1
 286 652 l 1,17,-1
 221 717 l 1,12,-1
221 1369 m 1,18,-1
 286 1434 l 1,19,-1
 742 1434 l 1,20,-1
 807 1369 l 1,21,-1
 742 1304 l 1,22,-1
 286 1304 l 1,23,-1
 221 1369 l 1,18,-1
775 815 m 1,24,-1
 775 1271 l 1,25,-1
 840 1336 l 1,26,-1
 905 1271 l 1,27,-1
 905 815 l 1,28,-1
 840 750 l 1,29,-1
 775 815 l 1,24,-1
EndSplineSet
EndChar

StartChar: three
Encoding: 51 51 23
Width: 931
GlyphClass: 2
Flags: W
LayerCount: 2
Fore
SplineSet
123 65 m 1,0,-1
 188 131 l 1,1,-1
 644 131 l 1,2,-1
 709 65 l 1,3,-1
 644 0 l 1,4,-1
 188 0 l 1,5,-1
 123 65 l 1,0,-1
123 717 m 1,6,-1
 188 782 l 1,7,-1
 644 782 l 1,8,-1
 709 717 l 1,9,-1
 644 652 l 1,10,-1
 188 652 l 1,11,-1
 123 717 l 1,6,-1
123 1369 m 1,12,-1
 188 1434 l 1,13,-1
 644 1434 l 1,14,-1
 709 1369 l 1,15,-1
 644 1304 l 1,16,-1
 188 1304 l 1,17,-1
 123 1369 l 1,12,-1
677 163 m 1,18,-1
 677 619 l 1,19,-1
 742 684 l 1,20,-1
 807 619 l 1,21,-1
 807 163 l 1,22,-1
 742 98 l 1,23,-1
 677 163 l 1,18,-1
677 815 m 1,24,-1
 677 1271 l 1,25,-1
 742 1336 l 1,26,-1
 807 1271 l 1,27,-1
 807 815 l 1,28,-1
 742 750 l 1,29,-1
 677 815 l 1,24,-1
EndSplineSet
EndChar

StartChar: four
Encoding: 52 52 24
Width: 1028
GlyphClass: 2
Flags: W
LayerCount: 2
Fore
SplineSet
123 815 m 1,0,-1
 123 1370 l 1,1,-1
 188 1435 l 1,2,-1
 253 1370 l 1,3,-1
 253 815 l 1,4,-1
 188 750 l 1,5,-1
 123 815 l 1,0,-1
221 717 m 1,6,-1
 286 782 l 1,7,-1
 742 782 l 1,8,-1
 807 717 l 1,9,-1
 742 652 l 1,10,-1
 286 652 l 1,11,-1
 221 717 l 1,6,-1
775 64 m 1,12,-1
 775 619 l 1,13,-1
 840 684 l 1,14,-1
 905 619 l 1,15,-1
 905 64 l 1,16,-1
 840 -1 l 1,17,-1
 775 64 l 1,12,-1
775 815 m 1,18,-1
 775 1370 l 1,19,-1
 840 1435 l 1,20,-1
 905 1370 l 1,21,-1
 905 815 l 1,22,-1
 840 750 l 1,23,-1
 775 815 l 1,18,-1
EndSplineSet
EndChar

StartChar: five
Encoding: 53 53 25
Width: 1028
GlyphClass: 2
Flags: W
LayerCount: 2
Fore
SplineSet
391.4375 325.684570312 m 5,0,-1
 391.4375 441.014648438 l 5,1,-1
 522.25 539.65234375 l 5,2,-1
 655.075195312 441.014648438 l 5,3,-1
 655.075195312 325.684570312 l 5,4,-1
 522.25 227.047851562 l 5,5,-1
 391.4375 325.684570312 l 5,0,-1
391.4375 982.684570312 m 5,6,-1
 391.4375 1098.01464844 l 5,7,-1
 522.25 1196.65234375 l 5,8,-1
 655.075195312 1098.01464844 l 5,9,-1
 655.075195312 982.684570312 l 5,10,-1
 522.25 884.047851562 l 5,11,-1
 391.4375 982.684570312 l 5,6,-1
123 815 m 1,12,-1
 123 1271 l 1,13,-1
 188 1336 l 1,14,-1
 253 1271 l 1,15,-1
 253 815 l 1,16,-1
 188 749 l 1,17,-1
 123 815 l 1,12,-1
221 65 m 1,18,-1
 286 130 l 1,19,-1
 742 130 l 1,20,-1
 807 65 l 1,21,-1
 742 0 l 1,22,-1
 286 0 l 1,23,-1
 221 65 l 1,18,-1
221 717 m 1,24,-1
 286 782 l 1,25,-1
 742 782 l 1,26,-1
 807 717 l 1,27,-1
 742 652 l 1,28,-1
 286 652 l 1,29,-1
 221 717 l 1,24,-1
221 1368 m 1,30,-1
 286 1434 l 1,31,-1
 742 1434 l 1,32,-1
 807 1368 l 1,33,-1
 742 1303 l 1,34,-1
 286 1303 l 1,35,-1
 221 1368 l 1,30,-1
775 163 m 1,36,-1
 775 619 l 1,37,-1
 840 684 l 1,38,-1
 905 619 l 1,39,-1
 905 163 l 1,40,-1
 840 98 l 1,41,-1
 775 163 l 1,36,-1
EndSplineSet
EndChar

StartChar: six
Encoding: 54 54 26
Width: 1028
GlyphClass: 2
Flags: W
LayerCount: 2
Fore
SplineSet
123 163 m 1,0,-1
 123 619 l 1,1,-1
 188 684 l 1,2,-1
 253 619 l 1,3,-1
 253 163 l 1,4,-1
 188 98 l 1,5,-1
 123 163 l 1,0,-1
123 815 m 1,6,-1
 123 1271 l 1,7,-1
 188 1336 l 1,8,-1
 253 1271 l 1,9,-1
 253 815 l 1,10,-1
 188 750 l 1,11,-1
 123 815 l 1,6,-1
221 65 m 1,12,-1
 286 131 l 1,13,-1
 742 131 l 1,14,-1
 807 65 l 1,15,-1
 742 0 l 1,16,-1
 286 0 l 1,17,-1
 221 65 l 1,12,-1
221 717 m 1,18,-1
 286 782 l 1,19,-1
 742 782 l 1,20,-1
 807 717 l 1,21,-1
 742 652 l 1,22,-1
 286 652 l 1,23,-1
 221 717 l 1,18,-1
221 1369 m 1,24,-1
 286 1434 l 1,25,-1
 742 1434 l 1,26,-1
 807 1369 l 1,27,-1
 742 1304 l 1,28,-1
 286 1304 l 1,29,-1
 221 1369 l 1,24,-1
775 163 m 1,30,-1
 775 619 l 1,31,-1
 840 684 l 1,32,-1
 905 619 l 1,33,-1
 905 163 l 1,34,-1
 840 98 l 1,35,-1
 775 163 l 1,30,-1
EndSplineSet
EndChar

StartChar: seven
Encoding: 55 55 27
Width: 931
GlyphClass: 2
Flags: W
LayerCount: 2
Fore
SplineSet
123 1369 m 1,0,-1
 188 1434 l 1,1,-1
 644 1434 l 1,2,-1
 709 1369 l 1,3,-1
 644 1304 l 1,4,-1
 188 1304 l 1,5,-1
 123 1369 l 1,0,-1
677 64 m 1,6,-1
 677 619 l 1,7,-1
 742 684 l 1,8,-1
 807 619 l 1,9,-1
 807 64 l 1,10,-1
 742 -1 l 1,11,-1
 677 64 l 1,6,-1
677 815 m 1,12,-1
 677 1271 l 1,13,-1
 742 1336 l 1,14,-1
 807 1271 l 1,15,-1
 807 815 l 1,16,-1
 742 750 l 1,17,-1
 677 815 l 1,12,-1
EndSplineSet
EndChar

StartChar: eight
Encoding: 56 56 28
Width: 1028
GlyphClass: 2
Flags: W
LayerCount: 2
Fore
SplineSet
123 163 m 1,0,-1
 123 619 l 1,1,-1
 188 684 l 1,2,-1
 253 619 l 1,3,-1
 253 163 l 1,4,-1
 188 98 l 1,5,-1
 123 163 l 1,0,-1
123 815 m 1,6,-1
 123 1271 l 1,7,-1
 188 1336 l 1,8,-1
 253 1271 l 1,9,-1
 253 815 l 1,10,-1
 188 750 l 1,11,-1
 123 815 l 1,6,-1
221 65 m 1,12,-1
 286 131 l 1,13,-1
 742 131 l 1,14,-1
 807 65 l 1,15,-1
 742 0 l 1,16,-1
 286 0 l 1,17,-1
 221 65 l 1,12,-1
221 717 m 1,18,-1
 286 782 l 1,19,-1
 742 782 l 1,20,-1
 807 717 l 1,21,-1
 742 652 l 1,22,-1
 286 652 l 1,23,-1
 221 717 l 1,18,-1
221 1369 m 1,24,-1
 286 1434 l 1,25,-1
 742 1434 l 1,26,-1
 807 1369 l 1,27,-1
 742 1304 l 1,28,-1
 286 1304 l 1,29,-1
 221 1369 l 1,24,-1
775 163 m 1,30,-1
 775 619 l 1,31,-1
 840 684 l 1,32,-1
 905 619 l 1,33,-1
 905 163 l 1,34,-1
 840 98 l 1,35,-1
 775 163 l 1,30,-1
775 815 m 1,36,-1
 775 1271 l 1,37,-1
 840 1336 l 1,38,-1
 905 1271 l 1,39,-1
 905 815 l 1,40,-1
 840 750 l 1,41,-1
 775 815 l 1,36,-1
EndSplineSet
EndChar

StartChar: nine
Encoding: 57 57 29
Width: 1028
GlyphClass: 2
Flags: W
LayerCount: 2
Fore
SplineSet
123 815 m 1,0,-1
 123 1271 l 1,1,-1
 188 1336 l 1,2,-1
 253 1271 l 1,3,-1
 253 815 l 1,4,-1
 188 750 l 1,5,-1
 123 815 l 1,0,-1
221 65 m 1,6,-1
 286 131 l 1,7,-1
 742 131 l 1,8,-1
 807 65 l 1,9,-1
 742 0 l 1,10,-1
 286 0 l 1,11,-1
 221 65 l 1,6,-1
221 717 m 1,12,-1
 286 782 l 1,13,-1
 742 782 l 1,14,-1
 807 717 l 1,15,-1
 742 652 l 1,16,-1
 286 652 l 1,17,-1
 221 717 l 1,12,-1
221 1369 m 1,18,-1
 286 1434 l 1,19,-1
 742 1434 l 1,20,-1
 807 1369 l 1,21,-1
 742 1304 l 1,22,-1
 286 1304 l 1,23,-1
 221 1369 l 1,18,-1
775 163 m 1,24,-1
 775 619 l 1,25,-1
 840 684 l 1,26,-1
 905 619 l 1,27,-1
 905 163 l 1,28,-1
 840 98 l 1,29,-1
 775 163 l 1,24,-1
775 815 m 1,30,-1
 775 1271 l 1,31,-1
 840 1336 l 1,32,-1
 905 1271 l 1,33,-1
 905 815 l 1,34,-1
 840 750 l 1,35,-1
 775 815 l 1,30,-1
EndSplineSet
EndChar

StartChar: colon
Encoding: 58 58 30
Width: 1028
GlyphClass: 2
Flags: W
LayerCount: 2
Fore
SplineSet
391.4375 325.684570312 m 5,0,-1
 391.4375 441.014648438 l 5,1,-1
 522.25 539.65234375 l 5,2,-1
 655.075195312 441.014648438 l 5,3,-1
 655.075195312 325.684570312 l 5,4,-1
 522.25 227.047851562 l 5,5,-1
 391.4375 325.684570312 l 5,0,-1
391.4375 982.684570312 m 5,6,-1
 391.4375 1098.01464844 l 5,7,-1
 522.25 1196.65234375 l 5,8,-1
 655.075195312 1098.01464844 l 5,9,-1
 655.075195312 982.684570312 l 5,10,-1
 522.25 884.047851562 l 5,11,-1
 391.4375 982.684570312 l 5,6,-1
EndSplineSet
EndChar

StartChar: less
Encoding: 60 60 31
Width: 1028
GlyphClass: 2
Flags: W
LayerCount: 2
Fore
SplineSet
123 163 m 1,0,-1
 123 619 l 1,1,-1
 188 684 l 1,2,-1
 253 619 l 1,3,-1
 253 163 l 1,4,-1
 188 98 l 1,5,-1
 123 163 l 1,0,-1
221 65 m 1,6,-1
 286 131 l 1,7,-1
 742 131 l 1,8,-1
 807 65 l 1,9,-1
 742 0 l 1,10,-1
 286 0 l 1,11,-1
 221 65 l 1,6,-1
221 717 m 1,12,-1
 286 782 l 1,13,-1
 742 782 l 1,14,-1
 807 717 l 1,15,-1
 742 652 l 1,16,-1
 286 652 l 1,17,-1
 221 717 l 1,12,-1
EndSplineSet
EndChar

StartChar: equal
Encoding: 61 61 32
Width: 1028
GlyphClass: 2
Flags: W
LayerCount: 2
Fore
SplineSet
221 65 m 1,0,-1
 286 131 l 1,1,-1
 742 131 l 1,2,-1
 807 65 l 1,3,-1
 742 0 l 1,4,-1
 286 0 l 1,5,-1
 221 65 l 1,0,-1
221 717 m 1,6,-1
 286 782 l 1,7,-1
 742 782 l 1,8,-1
 807 717 l 1,9,-1
 742 652 l 1,10,-1
 286 652 l 1,11,-1
 221 717 l 1,6,-1
EndSplineSet
EndChar

StartChar: greater
Encoding: 62 62 33
Width: 1028
GlyphClass: 2
Flags: W
LayerCount: 2
Fore
SplineSet
123 815 m 1,0,-1
 123 1271 l 1,1,-1
 188 1336 l 1,2,-1
 253 1271 l 1,3,-1
 253 815 l 1,4,-1
 188 750 l 1,5,-1
 123 815 l 1,0,-1
221 717 m 1,6,-1
 286 782 l 1,7,-1
 742 782 l 1,8,-1
 807 717 l 1,9,-1
 742 652 l 1,10,-1
 286 652 l 1,11,-1
 221 717 l 1,6,-1
221 1369 m 1,12,-1
 286 1434 l 1,13,-1
 742 1434 l 1,14,-1
 807 1369 l 1,15,-1
 742 1304 l 1,16,-1
 286 1304 l 1,17,-1
 221 1369 l 1,12,-1
775 163 m 1,18,-1
 775 619 l 1,19,-1
 840 684 l 1,20,-1
 905 619 l 1,21,-1
 905 163 l 1,22,-1
 840 98 l 1,23,-1
 775 163 l 1,18,-1
775 815 m 1,24,-1
 775 1271 l 1,25,-1
 840 1336 l 1,26,-1
 905 1271 l 1,27,-1
 905 815 l 1,28,-1
 840 750 l 1,29,-1
 775 815 l 1,24,-1
EndSplineSet
EndChar

StartChar: question
Encoding: 63 63 34
Width: 1028
GlyphClass: 2
Flags: W
LayerCount: 2
Fore
SplineSet
123 163 m 1,0,-1
 123 619 l 1,1,-1
 188 684 l 1,2,-1
 253 619 l 1,3,-1
 253 163 l 1,4,-1
 188 98 l 1,5,-1
 123 163 l 1,0,-1
221 717 m 1,6,-1
 286 782 l 1,7,-1
 742 782 l 1,8,-1
 807 717 l 1,9,-1
 742 652 l 1,10,-1
 286 652 l 1,11,-1
 221 717 l 1,6,-1
221 1369 m 1,12,-1
 286 1434 l 1,13,-1
 742 1434 l 1,14,-1
 807 1369 l 1,15,-1
 742 1304 l 1,16,-1
 286 1304 l 1,17,-1
 221 1369 l 1,12,-1
775 815 m 1,18,-1
 775 1271 l 1,19,-1
 840 1336 l 1,20,-1
 905 1271 l 1,21,-1
 905 815 l 1,22,-1
 840 750 l 1,23,-1
 775 815 l 1,18,-1
EndSplineSet
EndChar

StartChar: at
Encoding: 64 64 35
Width: 1028
GlyphClass: 2
Flags: W
LayerCount: 2
Fore
SplineSet
391.4375 325.684570312 m 5,0,-1
 391.4375 441.014648438 l 5,1,-1
 522.25 539.65234375 l 5,2,-1
 655.075195312 441.014648438 l 5,3,-1
 655.075195312 325.684570312 l 5,4,-1
 522.25 227.047851562 l 5,5,-1
 391.4375 325.684570312 l 5,0,-1
391.4375 982.684570312 m 5,6,-1
 391.4375 1098.01464844 l 5,7,-1
 522.25 1196.65234375 l 5,8,-1
 655.075195312 1098.01464844 l 5,9,-1
 655.075195312 982.684570312 l 5,10,-1
 522.25 884.047851562 l 5,11,-1
 391.4375 982.684570312 l 5,6,-1
123 163 m 1,12,-1
 123 619 l 1,13,-1
 188 684 l 1,14,-1
 253 619 l 1,15,-1
 253 163 l 1,16,-1
 188 98 l 1,17,-1
 123 163 l 1,12,-1
221 65 m 1,18,-1
 286 131 l 1,19,-1
 742 131 l 1,20,-1
 807 65 l 1,21,-1
 742 0 l 1,22,-1
 286 0 l 1,23,-1
 221 65 l 1,18,-1
221 717 m 1,24,-1
 286 782 l 1,25,-1
 742 782 l 1,26,-1
 807 717 l 1,27,-1
 742 652 l 1,28,-1
 286 652 l 1,29,-1
 221 717 l 1,24,-1
221 1369 m 1,30,-1
 286 1434 l 1,31,-1
 742 1434 l 1,32,-1
 807 1369 l 1,33,-1
 742 1304 l 1,34,-1
 286 1304 l 1,35,-1
 221 1369 l 1,30,-1
775 163 m 1,36,-1
 775 619 l 1,37,-1
 840 684 l 1,38,-1
 905 619 l 1,39,-1
 905 163 l 1,40,-1
 840 98 l 1,41,-1
 775 163 l 1,36,-1
775 815 m 1,42,-1
 775 1271 l 1,43,-1
 840 1336 l 1,44,-1
 905 1271 l 1,45,-1
 905 815 l 1,46,-1
 840 750 l 1,47,-1
 775 815 l 1,42,-1
EndSplineSet
EndChar

StartChar: A
Encoding: 65 65 36
AltUni2: 0000c3.ffffffff.0 0000c2.ffffffff.0 0000c0.ffffffff.0
Width: 1028
GlyphClass: 2
Flags: W
LayerCount: 2
Fore
SplineSet
123 65 m 1,0,-1
 123 619 l 1,1,-1
 188 684 l 1,2,-1
 253 619 l 1,3,-1
 253 65 l 1,4,-1
 188 0 l 1,5,-1
 123 65 l 1,0,-1
123 814 m 1,6,-1
 123 1271 l 1,7,-1
 188 1336 l 1,8,-1
 253 1271 l 1,9,-1
 253 814 l 1,10,-1
 188 749 l 1,11,-1
 123 814 l 1,6,-1
221 717 m 1,12,-1
 286 782 l 1,13,-1
 742 782 l 1,14,-1
 807 717 l 1,15,-1
 742 652 l 1,16,-1
 286 652 l 1,17,-1
 221 717 l 1,12,-1
221 1368 m 1,18,-1
 286 1433 l 1,19,-1
 742 1433 l 1,20,-1
 807 1368 l 1,21,-1
 742 1303 l 1,22,-1
 286 1303 l 1,23,-1
 221 1368 l 1,18,-1
775 65 m 1,24,-1
 775 619 l 1,25,-1
 840 684 l 1,26,-1
 905 619 l 1,27,-1
 905 65 l 1,28,-1
 840 0 l 1,29,-1
 775 65 l 1,24,-1
775 814 m 1,30,-1
 775 1271 l 1,31,-1
 840 1336 l 1,32,-1
 905 1271 l 1,33,-1
 905 814 l 1,34,-1
 840 749 l 1,35,-1
 775 814 l 1,30,-1
EndSplineSet
EndChar

StartChar: B
Encoding: 66 66 37
Width: 1028
GlyphClass: 2
Flags: W
LayerCount: 2
Fore
SplineSet
123 163 m 1,0,-1
 123 619 l 1,1,-1
 188 684 l 1,2,-1
 253 619 l 1,3,-1
 253 163 l 1,4,-1
 188 98 l 1,5,-1
 123 163 l 1,0,-1
123 815 m 1,6,-1
 123 1271 l 1,7,-1
 188 1336 l 1,8,-1
 253 1271 l 1,9,-1
 253 815 l 1,10,-1
 188 750 l 1,11,-1
 123 815 l 1,6,-1
221 65 m 1,12,-1
 286 131 l 1,13,-1
 742 131 l 1,14,-1
 807 65 l 1,15,-1
 742 0 l 1,16,-1
 286 0 l 1,17,-1
 221 65 l 1,12,-1
221 717 m 1,18,-1
 286 782 l 1,19,-1
 742 782 l 1,20,-1
 807 717 l 1,21,-1
 742 652 l 1,22,-1
 286 652 l 1,23,-1
 221 717 l 1,18,-1
775 163 m 1,24,-1
 775 619 l 1,25,-1
 840 684 l 1,26,-1
 905 619 l 1,27,-1
 905 163 l 1,28,-1
 840 98 l 1,29,-1
 775 163 l 1,24,-1
EndSplineSet
EndChar

StartChar: C
Encoding: 67 67 38
Width: 1028
GlyphClass: 2
Flags: W
LayerCount: 2
Fore
SplineSet
123 815 m 1,0,-1
 123 1271 l 1,1,-1
 188 1336 l 1,2,-1
 253 1271 l 1,3,-1
 253 815 l 1,4,-1
 188 750 l 1,5,-1
 123 815 l 1,0,-1
221 65 m 1,6,-1
 286 131 l 1,7,-1
 742 131 l 1,8,-1
 807 65 l 1,9,-1
 742 0 l 1,10,-1
 286 0 l 1,11,-1
 221 65 l 1,6,-1
221 717 m 1,12,-1
 286 782 l 1,13,-1
 742 782 l 1,14,-1
 807 717 l 1,15,-1
 742 652 l 1,16,-1
 286 652 l 1,17,-1
 221 717 l 1,12,-1
221 1369 m 1,18,-1
 286 1434 l 1,19,-1
 742 1434 l 1,20,-1
 807 1369 l 1,21,-1
 742 1304 l 1,22,-1
 286 1304 l 1,23,-1
 221 1369 l 1,18,-1
EndSplineSet
EndChar

StartChar: D
Encoding: 68 68 39
Width: 1028
GlyphClass: 2
Flags: W
LayerCount: 2
Fore
SplineSet
391.4375 325.684570312 m 5,0,-1
 391.4375 441.014648438 l 5,1,-1
 522.25 539.65234375 l 5,2,-1
 655.075195312 441.014648438 l 5,3,-1
 655.075195312 325.684570312 l 5,4,-1
 522.25 227.047851562 l 5,5,-1
 391.4375 325.684570312 l 5,0,-1
391.4375 982.684570312 m 5,6,-1
 391.4375 1098.01464844 l 5,7,-1
 522.25 1196.65234375 l 5,8,-1
 655.075195312 1098.01464844 l 5,9,-1
 655.075195312 982.684570312 l 5,10,-1
 522.25 884.047851562 l 5,11,-1
 391.4375 982.684570312 l 5,6,-1
123 163 m 1,12,-1
 123 619 l 1,13,-1
 188 684 l 1,14,-1
 253 619 l 1,15,-1
 253 163 l 1,16,-1
 188 98 l 1,17,-1
 123 163 l 1,12,-1
221 65 m 1,18,-1
 286 131 l 1,19,-1
 742 131 l 1,20,-1
 807 65 l 1,21,-1
 742 0 l 1,22,-1
 286 0 l 1,23,-1
 221 65 l 1,18,-1
221 717 m 1,24,-1
 286 782 l 1,25,-1
 742 782 l 1,26,-1
 807 717 l 1,27,-1
 742 652 l 1,28,-1
 286 652 l 1,29,-1
 221 717 l 1,24,-1
775 163 m 1,30,-1
 775 619 l 1,31,-1
 840 684 l 1,32,-1
 905 619 l 1,33,-1
 905 163 l 1,34,-1
 840 98 l 1,35,-1
 775 163 l 1,30,-1
775 815 m 1,36,-1
 775 1271 l 1,37,-1
 840 1336 l 1,38,-1
 905 1271 l 1,39,-1
 905 815 l 1,40,-1
 840 750 l 1,41,-1
 775 815 l 1,36,-1
EndSplineSet
EndChar

StartChar: E
Encoding: 69 69 40
AltUni2: 0000c8.ffffffff.0
Width: 931
GlyphClass: 2
Flags: W
LayerCount: 2
Fore
SplineSet
221 65 m 1,0,-1
 286 130 l 1,1,-1
 742 130 l 1,2,-1
 807 65 l 1,3,-1
 742 0 l 1,4,-1
 286 0 l 1,5,-1
 221 65 l 1,0,-1
221 717 m 1,6,-1
 286 782 l 1,7,-1
 742 782 l 1,8,-1
 807 717 l 1,9,-1
 742 652 l 1,10,-1
 286 652 l 1,11,-1
 221 717 l 1,6,-1
221 1368 m 1,12,-1
 286 1434 l 1,13,-1
 742 1434 l 1,14,-1
 807 1368 l 1,15,-1
 742 1303 l 1,16,-1
 286 1303 l 1,17,-1
 221 1368 l 1,12,-1
EndSplineSet
EndChar

StartChar: F
Encoding: 70 70 41
Width: 931
GlyphClass: 2
Flags: W
LayerCount: 2
Fore
SplineSet
391.4375 325.684570312 m 5,0,-1
 391.4375 441.014648438 l 5,1,-1
 522.25 539.65234375 l 5,2,-1
 655.075195312 441.014648438 l 5,3,-1
 655.075195312 325.684570312 l 5,4,-1
 522.25 227.047851562 l 5,5,-1
 391.4375 325.684570312 l 5,0,-1
391.4375 982.684570312 m 5,6,-1
 391.4375 1098.01464844 l 5,7,-1
 522.25 1196.65234375 l 5,8,-1
 655.075195312 1098.01464844 l 5,9,-1
 655.075195312 982.684570312 l 5,10,-1
 522.25 884.047851562 l 5,11,-1
 391.4375 982.684570312 l 5,6,-1
123 65 m 1,12,-1
 123 619 l 1,13,-1
 188 685 l 1,14,-1
 253 619 l 1,15,-1
 253 65 l 1,16,-1
 188 0 l 1,17,-1
 123 65 l 1,12,-1
123 815 m 1,18,-1
 123 1271 l 1,19,-1
 188 1336 l 1,20,-1
 253 1271 l 1,21,-1
 253 815 l 1,22,-1
 188 750 l 1,23,-1
 123 815 l 1,18,-1
221 717 m 1,24,-1
 286 782 l 1,25,-1
 742 782 l 1,26,-1
 807 717 l 1,27,-1
 742 652 l 1,28,-1
 286 652 l 1,29,-1
 221 717 l 1,24,-1
221 1369 m 1,30,-1
 286 1434 l 1,31,-1
 742 1434 l 1,32,-1
 807 1369 l 1,33,-1
 742 1304 l 1,34,-1
 286 1304 l 1,35,-1
 221 1369 l 1,30,-1
EndSplineSet
EndChar

StartChar: G
Encoding: 71 71 42
Width: 1028
GlyphClass: 2
Flags: W
LayerCount: 2
Fore
SplineSet
221 65 m 1,0,-1
 286 131 l 1,1,-1
 742 131 l 1,2,-1
 807 65 l 1,3,-1
 742 0 l 1,4,-1
 286 0 l 1,5,-1
 221 65 l 1,0,-1
221 717 m 1,6,-1
 286 782 l 1,7,-1
 742 782 l 1,8,-1
 807 717 l 1,9,-1
 742 652 l 1,10,-1
 286 652 l 1,11,-1
 221 717 l 1,6,-1
221 1369 m 1,12,-1
 286 1434 l 1,13,-1
 742 1434 l 1,14,-1
 807 1369 l 1,15,-1
 742 1304 l 1,16,-1
 286 1304 l 1,17,-1
 221 1369 l 1,12,-1
775 815 m 1,18,-1
 775 1271 l 1,19,-1
 840 1336 l 1,20,-1
 905 1271 l 1,21,-1
 905 815 l 1,22,-1
 840 750 l 1,23,-1
 775 815 l 1,18,-1
EndSplineSet
EndChar

StartChar: H
Encoding: 72 72 43
Width: 1028
GlyphClass: 2
Flags: W
LayerCount: 2
Fore
SplineSet
123 65 m 1,0,-1
 123 619 l 1,1,-1
 188 684 l 1,2,-1
 253 619 l 1,3,-1
 253 65 l 1,4,-1
 188 0 l 1,5,-1
 123 65 l 1,0,-1
123 814 m 1,6,-1
 123 1368 l 1,7,-1
 188 1433 l 1,8,-1
 253 1368 l 1,9,-1
 253 814 l 1,10,-1
 188 749 l 1,11,-1
 123 814 l 1,6,-1
221 717 m 1,12,-1
 286 782 l 1,13,-1
 742 782 l 1,14,-1
 807 717 l 1,15,-1
 742 652 l 1,16,-1
 286 652 l 1,17,-1
 221 717 l 1,12,-1
775 65 m 1,18,-1
 775 619 l 1,19,-1
 840 684 l 1,20,-1
 905 619 l 1,21,-1
 905 65 l 1,22,-1
 840 0 l 1,23,-1
 775 65 l 1,18,-1
775 814 m 1,24,-1
 775 1368 l 1,25,-1
 840 1433 l 1,26,-1
 905 1368 l 1,27,-1
 905 814 l 1,28,-1
 840 749 l 1,29,-1
 775 814 l 1,24,-1
EndSplineSet
EndChar

StartChar: I
Encoding: 73 73 44
AltUni2: 0000ce.ffffffff.0 0000cd.ffffffff.0 0000cc.ffffffff.0
Width: 376
GlyphClass: 2
Flags: W
LayerCount: 2
Fore
SplineSet
123 65 m 1,0,-1
 123 619 l 1,1,-1
 188 684 l 1,2,-1
 253 619 l 1,3,-1
 253 65 l 1,4,-1
 188 0 l 1,5,-1
 123 65 l 1,0,-1
123 814 m 1,6,-1
 123 1368 l 1,7,-1
 188 1434 l 1,8,-1
 253 1368 l 1,9,-1
 253 814 l 1,10,-1
 188 749 l 1,11,-1
 123 814 l 1,6,-1
EndSplineSet
EndChar

StartChar: J
Encoding: 74 74 45
Width: 1028
GlyphClass: 2
Flags: W
LayerCount: 2
Fore
SplineSet
123 163 m 1,0,-1
 123 619 l 1,1,-1
 188 684 l 1,2,-1
 253 619 l 1,3,-1
 253 163 l 1,4,-1
 188 98 l 1,5,-1
 123 163 l 1,0,-1
221 65 m 1,6,-1
 286 130 l 1,7,-1
 742 130 l 1,8,-1
 807 65 l 1,9,-1
 742 0 l 1,10,-1
 286 0 l 1,11,-1
 221 65 l 1,6,-1
775 163 m 1,12,-1
 775 619 l 1,13,-1
 840 684 l 1,14,-1
 905 619 l 1,15,-1
 905 163 l 1,16,-1
 840 98 l 1,17,-1
 775 163 l 1,12,-1
775 815 m 1,18,-1
 775 1368 l 1,19,-1
 840 1434 l 1,20,-1
 905 1368 l 1,21,-1
 905 815 l 1,22,-1
 840 749 l 1,23,-1
 775 815 l 1,18,-1
EndSplineSet
EndChar

StartChar: K
Encoding: 75 75 46
Width: 1028
GlyphClass: 2
Flags: W
LayerCount: 2
Fore
SplineSet
391.4375 325.684570312 m 1,0,-1
 391.4375 441.014648438 l 1,1,-1
 522.25 539.65234375 l 1,2,-1
 655.075195312 441.014648438 l 1,3,-1
 655.075195312 325.684570312 l 1,4,-1
 522.25 227.047851562 l 1,5,-1
 391.4375 325.684570312 l 1,0,-1
391.4375 982.684570312 m 1,6,-1
 391.4375 1098.01464844 l 1,7,-1
 522.25 1196.65234375 l 1,8,-1
 655.075195312 1098.01464844 l 1,9,-1
 655.075195312 982.684570312 l 1,10,-1
 522.25 884.047851562 l 1,11,-1
 391.4375 982.684570312 l 1,6,-1
188 684 m 1025,12,-1
123 815 m 1,13,-1
 123 1271 l 1,14,-1
 188 1336 l 1,15,-1
 253 1271 l 1,16,-1
 253 815 l 1,17,-1
 188 750 l 1,18,-1
 123 815 l 1,13,-1
221 717 m 1,19,-1
 286 782 l 1,20,-1
 742 782 l 1,21,-1
 807 717 l 1,22,-1
 742 652 l 1,23,-1
 286 652 l 1,24,-1
 221 717 l 1,19,-1
775 815 m 1,25,-1
 775 1271 l 1,26,-1
 840 1336 l 1,27,-1
 905 1271 l 1,28,-1
 905 815 l 1,29,-1
 840 750 l 1,30,-1
 775 815 l 1,25,-1
EndSplineSet
EndChar

StartChar: L
Encoding: 76 76 47
Width: 1028
GlyphClass: 2
Flags: W
LayerCount: 2
Fore
SplineSet
123 163 m 1,0,-1
 123 619 l 1,1,-1
 188 684 l 1,2,-1
 253 619 l 1,3,-1
 253 163 l 1,4,-1
 188 98 l 1,5,-1
 123 163 l 1,0,-1
123 815 m 1,6,-1
 123 1271 l 1,7,-1
 188 1336 l 1,8,-1
 253 1271 l 1,9,-1
 253 815 l 1,10,-1
 188 750 l 1,11,-1
 123 815 l 1,6,-1
221 65 m 1,12,-1
 286 131 l 1,13,-1
 742 131 l 1,14,-1
 807 65 l 1,15,-1
 742 0 l 1,16,-1
 286 0 l 1,17,-1
 221 65 l 1,12,-1
221 1369 m 1,18,-1
 286 1434 l 1,19,-1
 742 1434 l 1,20,-1
 807 1369 l 1,21,-1
 742 1304 l 1,22,-1
 286 1304 l 1,23,-1
 221 1369 l 1,18,-1
775 815 m 1,24,-1
 775 1271 l 1,25,-1
 840 1336 l 1,26,-1
 905 1271 l 1,27,-1
 905 815 l 1,28,-1
 840 750 l 1,29,-1
 775 815 l 1,24,-1
EndSplineSet
EndChar

StartChar: M
Encoding: 77 77 48
Width: 1028
GlyphClass: 2
Flags: W
LayerCount: 2
Fore
SplineSet
391.4375 325.684570312 m 5,0,-1
 391.4375 441.014648438 l 5,1,-1
 522.25 539.65234375 l 5,2,-1
 655.075195312 441.014648438 l 5,3,-1
 655.075195312 325.684570312 l 5,4,-1
 522.25 227.047851562 l 5,5,-1
 391.4375 325.684570312 l 5,0,-1
391.4375 982.684570312 m 5,6,-1
 391.4375 1098.01464844 l 5,7,-1
 522.25 1196.65234375 l 5,8,-1
 655.075195312 1098.01464844 l 5,9,-1
 655.075195312 982.684570312 l 5,10,-1
 522.25 884.047851562 l 5,11,-1
 391.4375 982.684570312 l 5,6,-1
123 163 m 1,12,-1
 123 619 l 1,13,-1
 188 684 l 1,14,-1
 253 619 l 1,15,-1
 253 163 l 1,16,-1
 188 98 l 1,17,-1
 123 163 l 1,12,-1
123 815 m 1,18,-1
 123 1271 l 1,19,-1
 188 1336 l 1,20,-1
 253 1271 l 1,21,-1
 253 815 l 1,22,-1
 188 750 l 1,23,-1
 123 815 l 1,18,-1
221 1369 m 1,24,-1
 286 1434 l 1,25,-1
 742 1434 l 1,26,-1
 807 1369 l 1,27,-1
 742 1304 l 1,28,-1
 286 1304 l 1,29,-1
 221 1369 l 1,24,-1
775 163 m 1,30,-1
 775 619 l 1,31,-1
 840 684 l 1,32,-1
 905 619 l 1,33,-1
 905 163 l 1,34,-1
 840 98 l 1,35,-1
 775 163 l 1,30,-1
775 815 m 1,36,-1
 775 1271 l 1,37,-1
 840 1336 l 1,38,-1
 905 1271 l 1,39,-1
 905 815 l 1,40,-1
 840 750 l 1,41,-1
 775 815 l 1,36,-1
EndSplineSet
EndChar

StartChar: N
Encoding: 78 78 49
Width: 1028
GlyphClass: 2
Flags: W
LayerCount: 2
Fore
SplineSet
123 815 m 1,0,-1
 123 1271 l 1,1,-1
 188 1336 l 1,2,-1
 253 1271 l 1,3,-1
 253 815 l 1,4,-1
 188 750 l 1,5,-1
 123 815 l 1,0,-1
221 717 m 1,6,-1
 286 782 l 1,7,-1
 742 782 l 1,8,-1
 807 717 l 1,9,-1
 742 652 l 1,10,-1
 286 652 l 1,11,-1
 221 717 l 1,6,-1
221 1369 m 1,12,-1
 286 1434 l 1,13,-1
 742 1434 l 1,14,-1
 807 1369 l 1,15,-1
 742 1304 l 1,16,-1
 286 1304 l 1,17,-1
 221 1369 l 1,12,-1
775 815 m 1,18,-1
 775 1271 l 1,19,-1
 840 1336 l 1,20,-1
 905 1271 l 1,21,-1
 905 815 l 1,22,-1
 840 750 l 1,23,-1
 775 815 l 1,18,-1
EndSplineSet
EndChar

StartChar: O
Encoding: 79 79 50
AltUni2: 0000d5.ffffffff.0 0000d4.ffffffff.0 0000d3.ffffffff.0
Width: 1028
GlyphClass: 2
Flags: W
LayerCount: 2
Fore
SplineSet
391.4375 325.684570312 m 1,0,-1
 391.4375 441.014648438 l 1,1,-1
 522.25 539.65234375 l 1,2,-1
 655.075195312 441.014648438 l 1,3,-1
 655.075195312 325.684570312 l 1,4,-1
 522.25 227.047851562 l 1,5,-1
 391.4375 325.684570312 l 1,0,-1
391.4375 982.684570312 m 1,6,-1
 391.4375 1098.01464844 l 1,7,-1
 522.25 1196.65234375 l 1,8,-1
 655.075195312 1098.01464844 l 1,9,-1
 655.075195312 982.684570312 l 1,10,-1
 522.25 884.047851562 l 1,11,-1
 391.4375 982.684570312 l 1,6,-1
123 163 m 1,12,-1
 123 619 l 1,13,-1
 188 684 l 1,14,-1
 253 619 l 1,15,-1
 253 163 l 1,16,-1
 188 98 l 1,17,-1
 123 163 l 1,12,-1
123 815 m 1,18,-1
 123 1271 l 1,19,-1
 188 1336 l 1,20,-1
 253 1271 l 1,21,-1
 253 815 l 1,22,-1
 188 750 l 1,23,-1
 123 815 l 1,18,-1
221 65 m 1,24,-1
 286 131 l 1,25,-1
 742 131 l 1,26,-1
 807 65 l 1,27,-1
 742 0 l 1,28,-1
 286 0 l 1,29,-1
 221 65 l 1,24,-1
221 1369 m 1,30,-1
 286 1434 l 1,31,-1
 742 1434 l 1,32,-1
 807 1369 l 1,33,-1
 742 1304 l 1,34,-1
 286 1304 l 1,35,-1
 221 1369 l 1,30,-1
775 163 m 1,36,-1
 775 619 l 1,37,-1
 840 684 l 1,38,-1
 905 619 l 1,39,-1
 905 163 l 1,40,-1
 840 98 l 1,41,-1
 775 163 l 1,36,-1
775 815 m 1,42,-1
 775 1271 l 1,43,-1
 840 1336 l 1,44,-1
 905 1271 l 1,45,-1
 905 815 l 1,46,-1
 840 750 l 1,47,-1
 775 815 l 1,42,-1
EndSplineSet
EndChar

StartChar: P
Encoding: 80 80 51
Width: 1028
GlyphClass: 2
Flags: W
LayerCount: 2
Fore
SplineSet
391.4375 325.684570312 m 1,0,-1
 391.4375 441.014648438 l 1,1,-1
 522.25 539.65234375 l 1,2,-1
 655.075195312 441.014648438 l 1,3,-1
 655.075195312 325.684570312 l 1,4,-1
 522.25 227.047851562 l 1,5,-1
 391.4375 325.684570312 l 1,0,-1
391.4375 982.684570312 m 1,6,-1
 391.4375 1098.01464844 l 1,7,-1
 522.25 1196.65234375 l 1,8,-1
 655.075195312 1098.01464844 l 1,9,-1
 655.075195312 982.684570312 l 1,10,-1
 522.25 884.047851562 l 1,11,-1
 391.4375 982.684570312 l 1,6,-1
123 815 m 1,12,-1
 123 1271 l 1,13,-1
 188 1336 l 1,14,-1
 253 1271 l 1,15,-1
 253 815 l 1,16,-1
 188 750 l 1,17,-1
 123 815 l 1,12,-1
221 65 m 1,18,-1
 286 131 l 1,19,-1
 742 131 l 1,20,-1
 807 65 l 1,21,-1
 742 0 l 1,22,-1
 286 0 l 1,23,-1
 221 65 l 1,18,-1
221 1369 m 1,24,-1
 286 1434 l 1,25,-1
 742 1434 l 1,26,-1
 807 1369 l 1,27,-1
 742 1304 l 1,28,-1
 286 1304 l 1,29,-1
 221 1369 l 1,24,-1
775 815 m 1,30,-1
 775 1271 l 1,31,-1
 840 1336 l 1,32,-1
 905 1271 l 1,33,-1
 905 815 l 1,34,-1
 840 750 l 1,35,-1
 775 815 l 1,30,-1
EndSplineSet
EndChar

StartChar: Q
Encoding: 81 81 52
Width: 1028
GlyphClass: 2
Flags: W
LayerCount: 2
Fore
SplineSet
123 815 m 1,0,-1
 123 1271 l 1,1,-1
 188 1336 l 1,2,-1
 253 1271 l 1,3,-1
 253 815 l 1,4,-1
 188 750 l 1,5,-1
 123 815 l 1,0,-1
221 717 m 1,6,-1
 286 782 l 1,7,-1
 742 782 l 1,8,-1
 807 717 l 1,9,-1
 742 652 l 1,10,-1
 286 652 l 1,11,-1
 221 717 l 1,6,-1
221 1369 m 1,12,-1
 286 1434 l 1,13,-1
 742 1434 l 1,14,-1
 807 1369 l 1,15,-1
 742 1304 l 1,16,-1
 286 1304 l 1,17,-1
 221 1369 l 1,12,-1
775 163 m 1,18,-1
 775 619 l 1,19,-1
 840 684 l 1,20,-1
 905 619 l 1,21,-1
 905 163 l 1,22,-1
 840 98 l 1,23,-1
 775 163 l 1,18,-1
775 815 m 1,24,-1
 775 1271 l 1,25,-1
 840 1336 l 1,26,-1
 905 1271 l 1,27,-1
 905 815 l 1,28,-1
 840 750 l 1,29,-1
 775 815 l 1,24,-1
EndSplineSet
EndChar

StartChar: R
Encoding: 82 82 53
Width: 1028
GlyphClass: 2
Flags: W
LayerCount: 2
Fore
SplineSet
391.4375 325.684570312 m 1,0,-1
 391.4375 441.014648438 l 1,1,-1
 522.25 539.65234375 l 1,2,-1
 655.075195312 441.014648438 l 1,3,-1
 655.075195312 325.684570312 l 1,4,-1
 522.25 227.047851562 l 1,5,-1
 391.4375 325.684570312 l 1,0,-1
391.4375 982.684570312 m 1,6,-1
 391.4375 1098.01464844 l 1,7,-1
 522.25 1196.65234375 l 1,8,-1
 655.075195312 1098.01464844 l 1,9,-1
 655.075195312 982.684570312 l 1,10,-1
 522.25 884.047851562 l 1,11,-1
 391.4375 982.684570312 l 1,6,-1
221 717 m 1,12,-1
 286 782 l 1,13,-1
 742 782 l 1,14,-1
 807 717 l 1,15,-1
 742 652 l 1,16,-1
 286 652 l 1,17,-1
 221 717 l 1,12,-1
EndSplineSet
EndChar

StartChar: S
Encoding: 83 83 54
Width: 1028
GlyphClass: 2
Flags: W
LayerCount: 2
Fore
SplineSet
391.4375 325.684570312 m 1,0,-1
 391.4375 441.014648438 l 1,1,-1
 522.25 539.65234375 l 1,2,-1
 655.075195312 441.014648438 l 1,3,-1
 655.075195312 325.684570312 l 1,4,-1
 522.25 227.047851562 l 1,5,-1
 391.4375 325.684570312 l 1,0,-1
391.4375 982.684570312 m 1,6,-1
 391.4375 1098.01464844 l 1,7,-1
 522.25 1196.65234375 l 1,8,-1
 655.075195312 1098.01464844 l 1,9,-1
 655.075195312 982.684570312 l 1,10,-1
 522.25 884.047851562 l 1,11,-1
 391.4375 982.684570312 l 1,6,-1
221 65 m 1,12,-1
 286 131 l 1,13,-1
 742 131 l 1,14,-1
 807 65 l 1,15,-1
 742 0 l 1,16,-1
 286 0 l 1,17,-1
 221 65 l 1,12,-1
221 717 m 1,18,-1
 286 782 l 1,19,-1
 742 782 l 1,20,-1
 807 717 l 1,21,-1
 742 652 l 1,22,-1
 286 652 l 1,23,-1
 221 717 l 1,18,-1
221 1369 m 1,24,-1
 286 1434 l 1,25,-1
 742 1434 l 1,26,-1
 807 1369 l 1,27,-1
 742 1304 l 1,28,-1
 286 1304 l 1,29,-1
 221 1369 l 1,24,-1
EndSplineSet
EndChar

StartChar: T
Encoding: 84 84 55
Width: 1028
GlyphClass: 2
Flags: W
LayerCount: 2
Fore
SplineSet
391.4375 325.684570312 m 5,0,-1
 391.4375 441.014648438 l 5,1,-1
 522.25 539.65234375 l 5,2,-1
 655.075195312 441.014648438 l 5,3,-1
 655.075195312 325.684570312 l 5,4,-1
 522.25 227.047851562 l 5,5,-1
 391.4375 325.684570312 l 5,0,-1
391.4375 982.684570312 m 5,6,-1
 391.4375 1098.01464844 l 5,7,-1
 522.25 1196.65234375 l 5,8,-1
 655.075195312 1098.01464844 l 5,9,-1
 655.075195312 982.684570312 l 5,10,-1
 522.25 884.047851562 l 5,11,-1
 391.4375 982.684570312 l 5,6,-1
123 163 m 1,12,-1
 123 619 l 1,13,-1
 188 684 l 1,14,-1
 253 619 l 1,15,-1
 253 163 l 1,16,-1
 188 98 l 1,17,-1
 123 163 l 1,12,-1
123 815 m 1,18,-1
 123 1271 l 1,19,-1
 188 1336 l 1,20,-1
 253 1271 l 1,21,-1
 253 815 l 1,22,-1
 188 750 l 1,23,-1
 123 815 l 1,18,-1
221 65 m 1,24,-1
 286 131 l 1,25,-1
 742 131 l 1,26,-1
 807 65 l 1,27,-1
 742 0 l 1,28,-1
 286 0 l 1,29,-1
 221 65 l 1,24,-1
221 717 m 1,30,-1
 286 782 l 1,31,-1
 742 782 l 1,32,-1
 807 717 l 1,33,-1
 742 652 l 1,34,-1
 286 652 l 1,35,-1
 221 717 l 1,30,-1
EndSplineSet
EndChar

StartChar: U
Encoding: 85 85 56
AltUni2: 0000da.ffffffff.0
Width: 1028
GlyphClass: 2
Flags: W
LayerCount: 2
Fore
SplineSet
123 163 m 1,0,-1
 123 619 l 1,1,-1
 188 684 l 1,2,-1
 253 619 l 1,3,-1
 253 163 l 1,4,-1
 188 98 l 1,5,-1
 123 163 l 1,0,-1
123 815 m 1,6,-1
 123 1368 l 1,7,-1
 188 1434 l 1,8,-1
 253 1368 l 1,9,-1
 253 815 l 1,10,-1
 188 749 l 1,11,-1
 123 815 l 1,6,-1
221 65 m 1,12,-1
 286 130 l 1,13,-1
 742 130 l 1,14,-1
 807 65 l 1,15,-1
 742 0 l 1,16,-1
 286 0 l 1,17,-1
 221 65 l 1,12,-1
775 163 m 1,18,-1
 775 619 l 1,19,-1
 840 684 l 1,20,-1
 905 619 l 1,21,-1
 905 163 l 1,22,-1
 840 98 l 1,23,-1
 775 163 l 1,18,-1
775 815 m 1,24,-1
 775 1368 l 1,25,-1
 840 1434 l 1,26,-1
 905 1368 l 1,27,-1
 905 815 l 1,28,-1
 840 749 l 1,29,-1
 775 815 l 1,24,-1
EndSplineSet
EndChar

StartChar: V
Encoding: 86 86 57
Width: 1028
GlyphClass: 2
Flags: W
LayerCount: 2
Fore
SplineSet
188 684 m 1025,0,-1
123 815 m 1,1,-1
 123 1271 l 1,2,-1
 188 1336 l 1,3,-1
 253 1271 l 1,4,-1
 253 815 l 1,5,-1
 188 750 l 1,6,-1
 123 815 l 1,1,-1
221 717 m 1,7,-1
 286 782 l 1,8,-1
 742 782 l 1,9,-1
 807 717 l 1,10,-1
 742 652 l 1,11,-1
 286 652 l 1,12,-1
 221 717 l 1,7,-1
775 815 m 1,13,-1
 775 1271 l 1,14,-1
 840 1336 l 1,15,-1
 905 1271 l 1,16,-1
 905 815 l 1,17,-1
 840 750 l 1,18,-1
 775 815 l 1,13,-1
EndSplineSet
EndChar

StartChar: W
Encoding: 87 87 58
Width: 1028
GlyphClass: 2
Flags: W
LayerCount: 2
Fore
SplineSet
123 163 m 1,0,-1
 123 619 l 1,1,-1
 188 684 l 1,2,-1
 253 619 l 1,3,-1
 253 163 l 1,4,-1
 188 98 l 1,5,-1
 123 163 l 1,0,-1
123 815 m 1,6,-1
 123 1271 l 1,7,-1
 188 1336 l 1,8,-1
 253 1271 l 1,9,-1
 253 815 l 1,10,-1
 188 750 l 1,11,-1
 123 815 l 1,6,-1
221 65 m 1,12,-1
 286 131 l 1,13,-1
 742 131 l 1,14,-1
 807 65 l 1,15,-1
 742 0 l 1,16,-1
 286 0 l 1,17,-1
 221 65 l 1,12,-1
221 717 m 1,18,-1
 286 782 l 1,19,-1
 742 782 l 1,20,-1
 807 717 l 1,21,-1
 742 652 l 1,22,-1
 286 652 l 1,23,-1
 221 717 l 1,18,-1
775 163 m 1,24,-1
 775 619 l 1,25,-1
 840 684 l 1,26,-1
 905 619 l 1,27,-1
 905 163 l 1,28,-1
 840 98 l 1,29,-1
 775 163 l 1,24,-1
775 815 m 1,30,-1
 775 1271 l 1,31,-1
 840 1336 l 1,32,-1
 905 1271 l 1,33,-1
 905 815 l 1,34,-1
 840 750 l 1,35,-1
 775 815 l 1,30,-1
EndSplineSet
EndChar

StartChar: X
Encoding: 88 88 59
Width: 1028
GlyphClass: 2
Flags: W
LayerCount: 2
Fore
SplineSet
123 163 m 1,0,-1
 123 619 l 1,1,-1
 188 684 l 1,2,-1
 253 619 l 1,3,-1
 253 163 l 1,4,-1
 188 98 l 1,5,-1
 123 163 l 1,0,-1
221 717 m 1,6,-1
 286 782 l 1,7,-1
 742 782 l 1,8,-1
 807 717 l 1,9,-1
 742 652 l 1,10,-1
 286 652 l 1,11,-1
 221 717 l 1,6,-1
221 1369 m 1,12,-1
 286 1434 l 1,13,-1
 742 1434 l 1,14,-1
 807 1369 l 1,15,-1
 742 1304 l 1,16,-1
 286 1304 l 1,17,-1
 221 1369 l 1,12,-1
775 163 m 1,18,-1
 775 619 l 1,19,-1
 840 684 l 1,20,-1
 905 619 l 1,21,-1
 905 163 l 1,22,-1
 840 98 l 1,23,-1
 775 163 l 1,18,-1
775 815 m 1,24,-1
 775 1271 l 1,25,-1
 840 1336 l 1,26,-1
 905 1271 l 1,27,-1
 905 815 l 1,28,-1
 840 750 l 1,29,-1
 775 815 l 1,24,-1
EndSplineSet
EndChar

StartChar: Y
Encoding: 89 89 60
Width: 1028
GlyphClass: 2
Flags: W
LayerCount: 2
Fore
SplineSet
391.4375 325.684570312 m 5,0,-1
 391.4375 441.014648438 l 5,1,-1
 522.25 539.65234375 l 5,2,-1
 655.075195312 441.014648438 l 5,3,-1
 655.075195312 325.684570312 l 5,4,-1
 522.25 227.047851562 l 5,5,-1
 391.4375 325.684570312 l 5,0,-1
391.4375 982.684570312 m 5,6,-1
 391.4375 1098.01464844 l 5,7,-1
 522.25 1196.65234375 l 5,8,-1
 655.075195312 1098.01464844 l 5,9,-1
 655.075195312 982.684570312 l 5,10,-1
 522.25 884.047851562 l 5,11,-1
 391.4375 982.684570312 l 5,6,-1
123 815 m 1,12,-1
 123 1369 l 1,13,-1
 188 1434 l 1,14,-1
 253 1369 l 1,15,-1
 253 815 l 1,16,-1
 188 749 l 1,17,-1
 123 815 l 1,12,-1
221 65 m 1,18,-1
 286 130 l 1,19,-1
 742 130 l 1,20,-1
 807 65 l 1,21,-1
 742 0 l 1,22,-1
 286 0 l 1,23,-1
 221 65 l 1,18,-1
221 717 m 1,24,-1
 286 782 l 1,25,-1
 742 782 l 1,26,-1
 807 717 l 1,27,-1
 742 652 l 1,28,-1
 286 652 l 1,29,-1
 221 717 l 1,24,-1
775 163 m 1,30,-1
 775 619 l 1,31,-1
 840 684 l 1,32,-1
 905 619 l 1,33,-1
 905 163 l 1,34,-1
 840 98 l 1,35,-1
 775 163 l 1,30,-1
775 815 m 1,36,-1
 775 1369 l 1,37,-1
 840 1434 l 1,38,-1
 905 1369 l 1,39,-1
 905 815 l 1,40,-1
 840 749 l 1,41,-1
 775 815 l 1,36,-1
EndSplineSet
EndChar

StartChar: Z
Encoding: 90 90 61
Width: 1028
GlyphClass: 2
Flags: W
LayerCount: 2
Fore
SplineSet
123 1368 m 1,0,-1
 188 1434 l 1,1,-1
 720 1434 l 1,2,-1
 785 1368 l 1,3,-1
 720 1303 l 1,4,-1
 188 1303 l 1,5,-1
 123 1368 l 1,0,-1
155 235 m 1,6,-1
 404 666 l 1,7,-1
 493 689 l 1,8,-1
 517 600 l 1,9,-1
 268 170 l 1,10,-1
 179 146 l 1,11,-1
 155 235 l 1,6,-1
241 65 m 1,12,-1
 307 130 l 1,13,-1
 839 130 l 1,14,-1
 904 65 l 1,15,-1
 839 0 l 1,16,-1
 307 0 l 1,17,-1
 241 65 l 1,12,-1
502 835 m 1,18,-1
 754 1272 l 1,19,-1
 843 1296 l 1,20,-1
 867 1207 l 1,21,-1
 615 770 l 1,22,-1
 525 746 l 1,23,-1
 502 835 l 1,18,-1
EndSplineSet
EndChar

StartChar: bracketleft
Encoding: 91 91 62
Width: 1028
GlyphClass: 2
Flags: W
LayerCount: 2
Fore
SplineSet
123 815 m 1,0,-1
 123 1271 l 1,1,-1
 188 1336 l 1,2,-1
 253 1271 l 1,3,-1
 253 815 l 1,4,-1
 188 750 l 1,5,-1
 123 815 l 1,0,-1
221 717 m 1,6,-1
 286 782 l 1,7,-1
 742 782 l 1,8,-1
 807 717 l 1,9,-1
 742 652 l 1,10,-1
 286 652 l 1,11,-1
 221 717 l 1,6,-1
221 1369 m 1,12,-1
 286 1434 l 1,13,-1
 742 1434 l 1,14,-1
 807 1369 l 1,15,-1
 742 1304 l 1,16,-1
 286 1304 l 1,17,-1
 221 1369 l 1,12,-1
EndSplineSet
EndChar

StartChar: backslash
Encoding: 92 92 63
Width: 1028
GlyphClass: 2
Flags: W
LayerCount: 2
Fore
SplineSet
123 815 m 1,0,-1
 123 1271 l 1,1,-1
 188 1336 l 1,2,-1
 253 1271 l 1,3,-1
 253 815 l 1,4,-1
 188 750 l 1,5,-1
 123 815 l 1,0,-1
221 717 m 1,6,-1
 286 782 l 1,7,-1
 742 782 l 1,8,-1
 807 717 l 1,9,-1
 742 652 l 1,10,-1
 286 652 l 1,11,-1
 221 717 l 1,6,-1
775 163 m 1,12,-1
 775 619 l 1,13,-1
 840 684 l 1,14,-1
 905 619 l 1,15,-1
 905 163 l 1,16,-1
 840 98 l 1,17,-1
 775 163 l 1,12,-1
EndSplineSet
EndChar

StartChar: bracketright
Encoding: 93 93 64
Width: 1028
GlyphClass: 2
Flags: W
LayerCount: 2
Fore
SplineSet
221 717 m 1,0,-1
 286 782 l 1,1,-1
 742 782 l 1,2,-1
 807 717 l 1,3,-1
 742 652 l 1,4,-1
 286 652 l 1,5,-1
 221 717 l 1,0,-1
221 1369 m 1,6,-1
 286 1434 l 1,7,-1
 742 1434 l 1,8,-1
 807 1369 l 1,9,-1
 742 1304 l 1,10,-1
 286 1304 l 1,11,-1
 221 1369 l 1,6,-1
775 815 m 1,12,-1
 775 1271 l 1,13,-1
 840 1336 l 1,14,-1
 905 1271 l 1,15,-1
 905 815 l 1,16,-1
 840 750 l 1,17,-1
 775 815 l 1,12,-1
EndSplineSet
EndChar

StartChar: asciicircum
Encoding: 94 94 65
Width: 1028
GlyphClass: 2
Flags: W
LayerCount: 2
Fore
SplineSet
123 814 m 1,0,-1
 123 1271 l 1,1,-1
 188 1336 l 1,2,-1
 253 1271 l 1,3,-1
 253 814 l 1,4,-1
 188 749 l 1,5,-1
 123 814 l 1,0,-1
221 1368 m 1,6,-1
 286 1433 l 1,7,-1
 742 1433 l 1,8,-1
 807 1368 l 1,9,-1
 742 1303 l 1,10,-1
 286 1303 l 1,11,-1
 221 1368 l 1,6,-1
775 814 m 1,12,-1
 775 1271 l 1,13,-1
 840 1336 l 1,14,-1
 905 1271 l 1,15,-1
 905 814 l 1,16,-1
 840 749 l 1,17,-1
 775 814 l 1,12,-1
EndSplineSet
EndChar

StartChar: underscore
Encoding: 95 95 66
Width: 1028
GlyphClass: 2
Flags: W
LayerCount: 2
Fore
SplineSet
221 65 m 1,0,-1
 286 130 l 1,1,-1
 742 130 l 1,2,-1
 807 65 l 1,3,-1
 742 0 l 1,4,-1
 286 0 l 1,5,-1
 221 65 l 1,0,-1
EndSplineSet
EndChar

StartChar: a
Encoding: 97 97 67
AltUni2: 0000e4.ffffffff.0 0000e3.ffffffff.0 0000e2.ffffffff.0 0000e1.ffffffff.0 0000e0.ffffffff.0
Width: 1028
GlyphClass: 2
Flags: W
LayerCount: 2
Fore
SplineSet
123 163 m 1,0,-1
 123 619 l 1,1,-1
 188 684 l 1,2,-1
 253 619 l 1,3,-1
 253 163 l 1,4,-1
 188 98 l 1,5,-1
 123 163 l 1,0,-1
221 65 m 1,6,-1
 286 131 l 1,7,-1
 742 131 l 1,8,-1
 807 65 l 1,9,-1
 742 0 l 1,10,-1
 286 0 l 1,11,-1
 221 65 l 1,6,-1
221 717 m 1,12,-1
 286 782 l 1,13,-1
 742 782 l 1,14,-1
 807 717 l 1,15,-1
 742 652 l 1,16,-1
 286 652 l 1,17,-1
 221 717 l 1,12,-1
221 1369 m 1,18,-1
 286 1434 l 1,19,-1
 742 1434 l 1,20,-1
 807 1369 l 1,21,-1
 742 1304 l 1,22,-1
 286 1304 l 1,23,-1
 221 1369 l 1,18,-1
775 163 m 1,24,-1
 775 619 l 1,25,-1
 840 684 l 1,26,-1
 905 619 l 1,27,-1
 905 163 l 1,28,-1
 840 98 l 1,29,-1
 775 163 l 1,24,-1
775 815 m 1,30,-1
 775 1271 l 1,31,-1
 840 1336 l 1,32,-1
 905 1271 l 1,33,-1
 905 815 l 1,34,-1
 840 750 l 1,35,-1
 775 815 l 1,30,-1
EndSplineSet
EndChar

StartChar: b
Encoding: 98 98 68
Width: 1028
GlyphClass: 2
Flags: W
LayerCount: 2
Fore
SplineSet
123 163 m 1,0,-1
 123 619 l 1,1,-1
 188 684 l 1,2,-1
 253 619 l 1,3,-1
 253 163 l 1,4,-1
 188 98 l 1,5,-1
 123 163 l 1,0,-1
123 815 m 1,6,-1
 123 1271 l 1,7,-1
 188 1336 l 1,8,-1
 253 1271 l 1,9,-1
 253 815 l 1,10,-1
 188 750 l 1,11,-1
 123 815 l 1,6,-1
221 65 m 1,12,-1
 286 131 l 1,13,-1
 742 131 l 1,14,-1
 807 65 l 1,15,-1
 742 0 l 1,16,-1
 286 0 l 1,17,-1
 221 65 l 1,12,-1
221 717 m 1,18,-1
 286 782 l 1,19,-1
 742 782 l 1,20,-1
 807 717 l 1,21,-1
 742 652 l 1,22,-1
 286 652 l 1,23,-1
 221 717 l 1,18,-1
775 163 m 1,24,-1
 775 619 l 1,25,-1
 840 684 l 1,26,-1
 905 619 l 1,27,-1
 905 163 l 1,28,-1
 840 98 l 1,29,-1
 775 163 l 1,24,-1
EndSplineSet
EndChar

StartChar: c
Encoding: 99 99 69
Width: 931
GlyphClass: 2
Flags: W
LayerCount: 2
Fore
SplineSet
123 163 m 1,0,-1
 123 619 l 1,1,-1
 188 684 l 1,2,-1
 253 619 l 1,3,-1
 253 163 l 1,4,-1
 188 98 l 1,5,-1
 123 163 l 1,0,-1
123 815 m 1,6,-1
 123 1271 l 1,7,-1
 188 1336 l 1,8,-1
 253 1271 l 1,9,-1
 253 815 l 1,10,-1
 188 749 l 1,11,-1
 123 815 l 1,6,-1
221 65 m 1,12,-1
 286 130 l 1,13,-1
 742 130 l 1,14,-1
 807 65 l 1,15,-1
 742 0 l 1,16,-1
 286 0 l 1,17,-1
 221 65 l 1,12,-1
221 1368 m 1,18,-1
 286 1434 l 1,19,-1
 742 1434 l 1,20,-1
 807 1368 l 1,21,-1
 742 1303 l 1,22,-1
 286 1303 l 1,23,-1
 221 1368 l 1,18,-1
EndSplineSet
EndChar

StartChar: d
Encoding: 100 100 70
Width: 1028
GlyphClass: 2
Flags: W
LayerCount: 2
Fore
SplineSet
123 163 m 1,0,-1
 123 619 l 1,1,-1
 188 684 l 1,2,-1
 253 619 l 1,3,-1
 253 163 l 1,4,-1
 188 98 l 1,5,-1
 123 163 l 1,0,-1
221 65 m 1,6,-1
 286 131 l 1,7,-1
 742 131 l 1,8,-1
 807 65 l 1,9,-1
 742 0 l 1,10,-1
 286 0 l 1,11,-1
 221 65 l 1,6,-1
221 717 m 1,12,-1
 286 782 l 1,13,-1
 742 782 l 1,14,-1
 807 717 l 1,15,-1
 742 652 l 1,16,-1
 286 652 l 1,17,-1
 221 717 l 1,12,-1
775 163 m 1,18,-1
 775 619 l 1,19,-1
 840 684 l 1,20,-1
 905 619 l 1,21,-1
 905 163 l 1,22,-1
 840 98 l 1,23,-1
 775 163 l 1,18,-1
775 815 m 1,24,-1
 775 1271 l 1,25,-1
 840 1336 l 1,26,-1
 905 1271 l 1,27,-1
 905 815 l 1,28,-1
 840 750 l 1,29,-1
 775 815 l 1,24,-1
EndSplineSet
EndChar

StartChar: e
Encoding: 101 101 71
AltUni2: 0000ea.ffffffff.0 0000e9.ffffffff.0 0000e8.ffffffff.0
Width: 1028
GlyphClass: 2
Flags: W
LayerCount: 2
Fore
SplineSet
123 163 m 1,0,-1
 123 619 l 1,1,-1
 188 684 l 1,2,-1
 253 619 l 1,3,-1
 253 163 l 1,4,-1
 188 98 l 1,5,-1
 123 163 l 1,0,-1
123 815 m 1,6,-1
 123 1271 l 1,7,-1
 188 1336 l 1,8,-1
 253 1271 l 1,9,-1
 253 815 l 1,10,-1
 188 750 l 1,11,-1
 123 815 l 1,6,-1
221 65 m 1,12,-1
 286 131 l 1,13,-1
 742 131 l 1,14,-1
 807 65 l 1,15,-1
 742 0 l 1,16,-1
 286 0 l 1,17,-1
 221 65 l 1,12,-1
221 717 m 1,18,-1
 286 782 l 1,19,-1
 742 782 l 1,20,-1
 807 717 l 1,21,-1
 742 652 l 1,22,-1
 286 652 l 1,23,-1
 221 717 l 1,18,-1
221 1369 m 1,24,-1
 286 1434 l 1,25,-1
 742 1434 l 1,26,-1
 807 1369 l 1,27,-1
 742 1304 l 1,28,-1
 286 1304 l 1,29,-1
 221 1369 l 1,24,-1
775 815 m 1,30,-1
 775 1271 l 1,31,-1
 840 1336 l 1,32,-1
 905 1271 l 1,33,-1
 905 815 l 1,34,-1
 840 750 l 1,35,-1
 775 815 l 1,30,-1
EndSplineSet
EndChar

StartChar: f
Encoding: 102 102 72
Width: 931
GlyphClass: 2
Flags: W
LayerCount: 2
Fore
SplineSet
123 65 m 1,0,-1
 123 619 l 1,1,-1
 188 685 l 1,2,-1
 253 619 l 1,3,-1
 253 65 l 1,4,-1
 188 0 l 1,5,-1
 123 65 l 1,0,-1
123 815 m 1,6,-1
 123 1271 l 1,7,-1
 188 1336 l 1,8,-1
 253 1271 l 1,9,-1
 253 815 l 1,10,-1
 188 750 l 1,11,-1
 123 815 l 1,6,-1
221 717 m 1,12,-1
 286 782 l 1,13,-1
 742 782 l 1,14,-1
 807 717 l 1,15,-1
 742 652 l 1,16,-1
 286 652 l 1,17,-1
 221 717 l 1,12,-1
221 1369 m 1,18,-1
 286 1434 l 1,19,-1
 742 1434 l 1,20,-1
 807 1369 l 1,21,-1
 742 1304 l 1,22,-1
 286 1304 l 1,23,-1
 221 1369 l 1,18,-1
EndSplineSet
EndChar

StartChar: g
Encoding: 103 103 73
Width: 1028
GlyphClass: 2
Flags: W
LayerCount: 2
Fore
SplineSet
123 163 m 1,0,-1
 123 619 l 1,1,-1
 188 684 l 1,2,-1
 253 619 l 1,3,-1
 253 163 l 1,4,-1
 188 98 l 1,5,-1
 123 163 l 1,0,-1
123 815 m 1,6,-1
 123 1271 l 1,7,-1
 188 1336 l 1,8,-1
 253 1271 l 1,9,-1
 253 815 l 1,10,-1
 188 749 l 1,11,-1
 123 815 l 1,6,-1
221 65 m 1,12,-1
 286 130 l 1,13,-1
 742 130 l 1,14,-1
 807 65 l 1,15,-1
 742 0 l 1,16,-1
 286 0 l 1,17,-1
 221 65 l 1,12,-1
221 1368 m 1,18,-1
 286 1434 l 1,19,-1
 742 1434 l 1,20,-1
 807 1368 l 1,21,-1
 742 1303 l 1,22,-1
 286 1303 l 1,23,-1
 221 1368 l 1,18,-1
775 163 m 1,24,-1
 775 619 l 1,25,-1
 840 684 l 1,26,-1
 905 619 l 1,27,-1
 905 163 l 1,28,-1
 840 98 l 1,29,-1
 775 163 l 1,24,-1
EndSplineSet
EndChar

StartChar: h
Encoding: 104 104 74
Width: 1028
GlyphClass: 2
Flags: W
LayerCount: 2
Fore
SplineSet
123 65 m 1,0,-1
 123 619 l 1,1,-1
 188 684 l 1,2,-1
 253 619 l 1,3,-1
 253 65 l 1,4,-1
 188 0 l 1,5,-1
 123 65 l 1,0,-1
123 814 m 1,6,-1
 123 1368 l 1,7,-1
 188 1433 l 1,8,-1
 253 1368 l 1,9,-1
 253 814 l 1,10,-1
 188 749 l 1,11,-1
 123 814 l 1,6,-1
221 717 m 1,12,-1
 286 782 l 1,13,-1
 742 782 l 1,14,-1
 807 717 l 1,15,-1
 742 652 l 1,16,-1
 286 652 l 1,17,-1
 221 717 l 1,12,-1
775 65 m 1,18,-1
 775 619 l 1,19,-1
 840 684 l 1,20,-1
 905 619 l 1,21,-1
 905 65 l 1,22,-1
 840 0 l 1,23,-1
 775 65 l 1,18,-1
EndSplineSet
EndChar

StartChar: i
Encoding: 105 105 75
AltUni2: 0000ee.ffffffff.0 0000ed.ffffffff.0 0000ec.ffffffff.0
Width: 931
GlyphClass: 2
Flags: W
LayerCount: 2
Fore
SplineSet
123 163 m 1,0,-1
 123 619 l 1,1,-1
 188 684 l 1,2,-1
 253 619 l 1,3,-1
 253 163 l 1,4,-1
 188 98 l 1,5,-1
 123 163 l 1,0,-1
123 815 m 1,6,-1
 123 1271 l 1,7,-1
 188 1336 l 1,8,-1
 253 1271 l 1,9,-1
 253 815 l 1,10,-1
 188 749 l 1,11,-1
 123 815 l 1,6,-1
221 65 m 1,12,-1
 286 130 l 1,13,-1
 742 130 l 1,14,-1
 807 65 l 1,15,-1
 742 0 l 1,16,-1
 286 0 l 1,17,-1
 221 65 l 1,12,-1
221 717 m 1,18,-1
 286 782 l 1,19,-1
 742 782 l 1,20,-1
 807 717 l 1,21,-1
 742 652 l 1,22,-1
 286 652 l 1,23,-1
 221 717 l 1,18,-1
221 1368 m 1,24,-1
 286 1434 l 1,25,-1
 742 1434 l 1,26,-1
 807 1368 l 1,27,-1
 742 1303 l 1,28,-1
 286 1303 l 1,29,-1
 221 1368 l 1,24,-1
EndSplineSet
EndChar

StartChar: j
Encoding: 106 106 76
Width: 1028
GlyphClass: 2
Flags: W
LayerCount: 2
Fore
SplineSet
123 163 m 1,0,-1
 123 619 l 1,1,-1
 188 684 l 1,2,-1
 253 619 l 1,3,-1
 253 163 l 1,4,-1
 188 98 l 1,5,-1
 123 163 l 1,0,-1
221 65 m 1,6,-1
 286 130 l 1,7,-1
 742 130 l 1,8,-1
 807 65 l 1,9,-1
 742 0 l 1,10,-1
 286 0 l 1,11,-1
 221 65 l 1,6,-1
775 163 m 1,12,-1
 775 619 l 1,13,-1
 840 684 l 1,14,-1
 905 619 l 1,15,-1
 905 163 l 1,16,-1
 840 98 l 1,17,-1
 775 163 l 1,12,-1
775 815 m 1,18,-1
 775 1368 l 1,19,-1
 840 1434 l 1,20,-1
 905 1368 l 1,21,-1
 905 815 l 1,22,-1
 840 749 l 1,23,-1
 775 815 l 1,18,-1
EndSplineSet
EndChar

StartChar: k
Encoding: 107 107 77
Width: 1028
GlyphClass: 2
Flags: W
LayerCount: 2
Fore
SplineSet
123 163 m 1,0,-1
 123 619 l 1,1,-1
 188 684 l 1,2,-1
 253 619 l 1,3,-1
 253 163 l 1,4,-1
 188 98 l 1,5,-1
 123 163 l 1,0,-1
123 815 m 1,6,-1
 123 1271 l 1,7,-1
 188 1336 l 1,8,-1
 253 1271 l 1,9,-1
 253 815 l 1,10,-1
 188 750 l 1,11,-1
 123 815 l 1,6,-1
221 717 m 1,12,-1
 286 782 l 1,13,-1
 742 782 l 1,14,-1
 807 717 l 1,15,-1
 742 652 l 1,16,-1
 286 652 l 1,17,-1
 221 717 l 1,12,-1
EndSplineSet
EndChar

StartChar: l
Encoding: 108 108 78
Width: 931
GlyphClass: 2
Flags: W
LayerCount: 2
Fore
SplineSet
123 163 m 1,0,-1
 123 619 l 1,1,-1
 188 684 l 1,2,-1
 253 619 l 1,3,-1
 253 163 l 1,4,-1
 188 98 l 1,5,-1
 123 163 l 1,0,-1
123 815 m 1,6,-1
 123 1368 l 1,7,-1
 188 1434 l 1,8,-1
 253 1368 l 1,9,-1
 253 815 l 1,10,-1
 188 749 l 1,11,-1
 123 815 l 1,6,-1
221 65 m 1,12,-1
 286 130 l 1,13,-1
 742 130 l 1,14,-1
 807 65 l 1,15,-1
 742 0 l 1,16,-1
 286 0 l 1,17,-1
 221 65 l 1,12,-1
EndSplineSet
EndChar

StartChar: m
Encoding: 109 109 79
Width: 1028
GlyphClass: 2
Flags: W
LayerCount: 2
Fore
SplineSet
123 65 m 1,0,-1
 123 619 l 1,1,-1
 188 684 l 1,2,-1
 253 619 l 1,3,-1
 253 65 l 1,4,-1
 188 0 l 1,5,-1
 123 65 l 1,0,-1
123 814 m 1,6,-1
 123 1271 l 1,7,-1
 188 1336 l 1,8,-1
 253 1271 l 1,9,-1
 253 814 l 1,10,-1
 188 749 l 1,11,-1
 123 814 l 1,6,-1
221 1368 m 1,12,-1
 286 1433 l 1,13,-1
 742 1433 l 1,14,-1
 807 1368 l 1,15,-1
 742 1303 l 1,16,-1
 286 1303 l 1,17,-1
 221 1368 l 1,12,-1
775 65 m 1,18,-1
 775 619 l 1,19,-1
 840 684 l 1,20,-1
 905 619 l 1,21,-1
 905 65 l 1,22,-1
 840 0 l 1,23,-1
 775 65 l 1,18,-1
775 814 m 1,24,-1
 775 1271 l 1,25,-1
 840 1336 l 1,26,-1
 905 1271 l 1,27,-1
 905 814 l 1,28,-1
 840 749 l 1,29,-1
 775 814 l 1,24,-1
EndSplineSet
EndChar

StartChar: n
Encoding: 110 110 80
Width: 1028
GlyphClass: 2
Flags: W
LayerCount: 2
Fore
SplineSet
123 163 m 1,0,-1
 123 619 l 1,1,-1
 188 684 l 1,2,-1
 253 619 l 1,3,-1
 253 163 l 1,4,-1
 188 98 l 1,5,-1
 123 163 l 1,0,-1
221 717 m 1,6,-1
 286 782 l 1,7,-1
 742 782 l 1,8,-1
 807 717 l 1,9,-1
 742 652 l 1,10,-1
 286 652 l 1,11,-1
 221 717 l 1,6,-1
775 163 m 1,12,-1
 775 619 l 1,13,-1
 840 684 l 1,14,-1
 905 619 l 1,15,-1
 905 163 l 1,16,-1
 840 98 l 1,17,-1
 775 163 l 1,12,-1
EndSplineSet
EndChar

StartChar: o
Encoding: 111 111 81
AltUni2: 0000f5.ffffffff.0 0000f4.ffffffff.0 0000f3.ffffffff.0 0000f2.ffffffff.0
Width: 1028
GlyphClass: 2
Flags: W
LayerCount: 2
Fore
SplineSet
123 163 m 1,0,-1
 123 619 l 1,1,-1
 188 684 l 1,2,-1
 253 619 l 1,3,-1
 253 163 l 1,4,-1
 188 98 l 1,5,-1
 123 163 l 1,0,-1
221 65 m 1,6,-1
 286 131 l 1,7,-1
 742 131 l 1,8,-1
 807 65 l 1,9,-1
 742 0 l 1,10,-1
 286 0 l 1,11,-1
 221 65 l 1,6,-1
221 717 m 1,12,-1
 286 782 l 1,13,-1
 742 782 l 1,14,-1
 807 717 l 1,15,-1
 742 652 l 1,16,-1
 286 652 l 1,17,-1
 221 717 l 1,12,-1
775 163 m 1,18,-1
 775 619 l 1,19,-1
 840 684 l 1,20,-1
 905 619 l 1,21,-1
 905 163 l 1,22,-1
 840 98 l 1,23,-1
 775 163 l 1,18,-1
EndSplineSet
EndChar

StartChar: p
Encoding: 112 112 82
Width: 1028
GlyphClass: 2
Flags: W
LayerCount: 2
Fore
SplineSet
123 163 m 1,0,-1
 123 619 l 1,1,-1
 188 684 l 1,2,-1
 253 619 l 1,3,-1
 253 163 l 1,4,-1
 188 98 l 1,5,-1
 123 163 l 1,0,-1
123 815 m 1,6,-1
 123 1271 l 1,7,-1
 188 1336 l 1,8,-1
 253 1271 l 1,9,-1
 253 815 l 1,10,-1
 188 750 l 1,11,-1
 123 815 l 1,6,-1
221 717 m 1,12,-1
 286 782 l 1,13,-1
 742 782 l 1,14,-1
 807 717 l 1,15,-1
 742 652 l 1,16,-1
 286 652 l 1,17,-1
 221 717 l 1,12,-1
221 1369 m 1,18,-1
 286 1434 l 1,19,-1
 742 1434 l 1,20,-1
 807 1369 l 1,21,-1
 742 1304 l 1,22,-1
 286 1304 l 1,23,-1
 221 1369 l 1,18,-1
775 815 m 1,24,-1
 775 1271 l 1,25,-1
 840 1336 l 1,26,-1
 905 1271 l 1,27,-1
 905 815 l 1,28,-1
 840 750 l 1,29,-1
 775 815 l 1,24,-1
EndSplineSet
EndChar

StartChar: q
Encoding: 113 113 83
Width: 1028
GlyphClass: 2
Flags: W
LayerCount: 2
Fore
SplineSet
391.4375 325.684570312 m 5,0,-1
 391.4375 441.014648438 l 5,1,-1
 522.25 539.65234375 l 5,2,-1
 655.075195312 441.014648438 l 5,3,-1
 655.075195312 325.684570312 l 5,4,-1
 522.25 227.047851562 l 5,5,-1
 391.4375 325.684570312 l 5,0,-1
391.4375 982.684570312 m 5,6,-1
 391.4375 1098.01464844 l 5,7,-1
 522.25 1196.65234375 l 5,8,-1
 655.075195312 1098.01464844 l 5,9,-1
 655.075195312 982.684570312 l 5,10,-1
 522.25 884.047851562 l 5,11,-1
 391.4375 982.684570312 l 5,6,-1
123 815 m 1,12,-1
 123 1271 l 1,13,-1
 188 1336 l 1,14,-1
 253 1271 l 1,15,-1
 253 815 l 1,16,-1
 188 750 l 1,17,-1
 123 815 l 1,12,-1
221 717 m 1,18,-1
 286 782 l 1,19,-1
 742 782 l 1,20,-1
 807 717 l 1,21,-1
 742 652 l 1,22,-1
 286 652 l 1,23,-1
 221 717 l 1,18,-1
221 1369 m 1,24,-1
 286 1434 l 1,25,-1
 742 1434 l 1,26,-1
 807 1369 l 1,27,-1
 742 1304 l 1,28,-1
 286 1304 l 1,29,-1
 221 1369 l 1,24,-1
775 163 m 1,30,-1
 775 619 l 1,31,-1
 840 684 l 1,32,-1
 905 619 l 1,33,-1
 905 163 l 1,34,-1
 840 98 l 1,35,-1
 775 163 l 1,30,-1
775 815 m 1,36,-1
 775 1271 l 1,37,-1
 840 1336 l 1,38,-1
 905 1271 l 1,39,-1
 905 815 l 1,40,-1
 840 750 l 1,41,-1
 775 815 l 1,36,-1
EndSplineSet
EndChar

StartChar: r
Encoding: 114 114 84
Width: 1028
GlyphClass: 2
Flags: W
LayerCount: 2
Fore
SplineSet
123 163 m 1,0,-1
 123 619 l 1,1,-1
 188 684 l 1,2,-1
 253 619 l 1,3,-1
 253 163 l 1,4,-1
 188 98 l 1,5,-1
 123 163 l 1,0,-1
123 815 m 1,6,-1
 123 1271 l 1,7,-1
 188 1336 l 1,8,-1
 253 1271 l 1,9,-1
 253 815 l 1,10,-1
 188 750 l 1,11,-1
 123 815 l 1,6,-1
221 1369 m 1,12,-1
 286 1434 l 1,13,-1
 742 1434 l 1,14,-1
 807 1369 l 1,15,-1
 742 1304 l 1,16,-1
 286 1304 l 1,17,-1
 221 1369 l 1,12,-1
EndSplineSet
EndChar

StartChar: s
Encoding: 115 115 85
Width: 1028
GlyphClass: 2
Flags: W
LayerCount: 2
Fore
SplineSet
123 815 m 1,0,-1
 123 1271 l 1,1,-1
 188 1336 l 1,2,-1
 253 1271 l 1,3,-1
 253 815 l 1,4,-1
 188 750 l 1,5,-1
 123 815 l 1,0,-1
221 65 m 1,6,-1
 286 131 l 1,7,-1
 742 131 l 1,8,-1
 807 65 l 1,9,-1
 742 0 l 1,10,-1
 286 0 l 1,11,-1
 221 65 l 1,6,-1
221 717 m 1,12,-1
 286 782 l 1,13,-1
 742 782 l 1,14,-1
 807 717 l 1,15,-1
 742 652 l 1,16,-1
 286 652 l 1,17,-1
 221 717 l 1,12,-1
221 1369 m 1,18,-1
 286 1434 l 1,19,-1
 742 1434 l 1,20,-1
 807 1369 l 1,21,-1
 742 1304 l 1,22,-1
 286 1304 l 1,23,-1
 221 1369 l 1,18,-1
775 163 m 1,24,-1
 775 619 l 1,25,-1
 840 684 l 1,26,-1
 905 619 l 1,27,-1
 905 163 l 1,28,-1
 840 98 l 1,29,-1
 775 163 l 1,24,-1
EndSplineSet
EndChar

StartChar: t
Encoding: 116 116 86
Width: 1028
GlyphClass: 2
Flags: W
LayerCount: 2
Fore
SplineSet
123 163 m 1,0,-1
 123 619 l 1,1,-1
 188 684 l 1,2,-1
 253 619 l 1,3,-1
 253 163 l 1,4,-1
 188 98 l 1,5,-1
 123 163 l 1,0,-1
123 815 m 1,6,-1
 123 1271 l 1,7,-1
 188 1336 l 1,8,-1
 253 1271 l 1,9,-1
 253 815 l 1,10,-1
 188 750 l 1,11,-1
 123 815 l 1,6,-1
221 65 m 1,12,-1
 286 131 l 1,13,-1
 742 131 l 1,14,-1
 807 65 l 1,15,-1
 742 0 l 1,16,-1
 286 0 l 1,17,-1
 221 65 l 1,12,-1
221 717 m 1,18,-1
 286 782 l 1,19,-1
 742 782 l 1,20,-1
 807 717 l 1,21,-1
 742 652 l 1,22,-1
 286 652 l 1,23,-1
 221 717 l 1,18,-1
EndSplineSet
EndChar

StartChar: u
Encoding: 117 117 87
AltUni2: 0000fa.ffffffff.0 0000f9.ffffffff.0
Width: 1028
GlyphClass: 2
Flags: W
LayerCount: 2
Fore
SplineSet
123 163 m 1,0,-1
 123 619 l 1,1,-1
 188 684 l 1,2,-1
 253 619 l 1,3,-1
 253 163 l 1,4,-1
 188 98 l 1,5,-1
 123 163 l 1,0,-1
221 65 m 1,6,-1
 286 130 l 1,7,-1
 742 130 l 1,8,-1
 807 65 l 1,9,-1
 742 0 l 1,10,-1
 286 0 l 1,11,-1
 221 65 l 1,6,-1
775 163 m 1,12,-1
 775 619 l 1,13,-1
 840 684 l 1,14,-1
 905 619 l 1,15,-1
 905 163 l 1,16,-1
 840 98 l 1,17,-1
 775 163 l 1,12,-1
EndSplineSet
EndChar

StartChar: v
Encoding: 118 118 88
Width: 1028
GlyphClass: 2
Flags: W
LayerCount: 2
Fore
SplineSet
123 163 m 1,0,-1
 123 619 l 1,1,-1
 188 684 l 1,2,-1
 253 619 l 1,3,-1
 253 163 l 1,4,-1
 188 98 l 1,5,-1
 123 163 l 1,0,-1
123 815 m 1,6,-1
 123 1368 l 1,7,-1
 188 1434 l 1,8,-1
 253 1368 l 1,9,-1
 253 815 l 1,10,-1
 188 749 l 1,11,-1
 123 815 l 1,6,-1
221 65 m 1,12,-1
 286 130 l 1,13,-1
 742 130 l 1,14,-1
 807 65 l 1,15,-1
 742 0 l 1,16,-1
 286 0 l 1,17,-1
 221 65 l 1,12,-1
775 163 m 1,18,-1
 775 619 l 1,19,-1
 840 684 l 1,20,-1
 905 619 l 1,21,-1
 905 163 l 1,22,-1
 840 98 l 1,23,-1
 775 163 l 1,18,-1
775 815 m 1,24,-1
 775 1368 l 1,25,-1
 840 1434 l 1,26,-1
 905 1368 l 1,27,-1
 905 815 l 1,28,-1
 840 749 l 1,29,-1
 775 815 l 1,24,-1
EndSplineSet
EndChar

StartChar: w
Encoding: 119 119 89
Width: 1028
GlyphClass: 2
Flags: W
LayerCount: 2
Fore
SplineSet
391.4375 325.684570312 m 5,0,-1
 391.4375 441.014648438 l 5,1,-1
 522.25 539.65234375 l 5,2,-1
 655.075195312 441.014648438 l 5,3,-1
 655.075195312 325.684570312 l 5,4,-1
 522.25 227.047851562 l 5,5,-1
 391.4375 325.684570312 l 5,0,-1
391.4375 982.684570312 m 5,6,-1
 391.4375 1098.01464844 l 5,7,-1
 522.25 1196.65234375 l 5,8,-1
 655.075195312 1098.01464844 l 5,9,-1
 655.075195312 982.684570312 l 5,10,-1
 522.25 884.047851562 l 5,11,-1
 391.4375 982.684570312 l 5,6,-1
123 163 m 1,12,-1
 123 619 l 1,13,-1
 188 684 l 1,14,-1
 253 619 l 1,15,-1
 253 163 l 1,16,-1
 188 98 l 1,17,-1
 123 163 l 1,12,-1
123 815 m 1,18,-1
 123 1368 l 1,19,-1
 188 1434 l 1,20,-1
 253 1368 l 1,21,-1
 253 815 l 1,22,-1
 188 749 l 1,23,-1
 123 815 l 1,18,-1
221 65 m 1,24,-1
 286 130 l 1,25,-1
 742 130 l 1,26,-1
 807 65 l 1,27,-1
 742 0 l 1,28,-1
 286 0 l 1,29,-1
 221 65 l 1,24,-1
775 163 m 1,30,-1
 775 619 l 1,31,-1
 840 684 l 1,32,-1
 905 619 l 1,33,-1
 905 163 l 1,34,-1
 840 98 l 1,35,-1
 775 163 l 1,30,-1
775 815 m 1,36,-1
 775 1368 l 1,37,-1
 840 1434 l 1,38,-1
 905 1368 l 1,39,-1
 905 815 l 1,40,-1
 840 749 l 1,41,-1
 775 815 l 1,36,-1
EndSplineSet
EndChar

StartChar: x
Encoding: 120 120 90
Width: 1028
GlyphClass: 2
Flags: W
LayerCount: 2
Fore
SplineSet
391.4375 325.684570312 m 1,0,-1
 391.4375 441.014648438 l 1,1,-1
 522.25 539.65234375 l 1,2,-1
 655.075195312 441.014648438 l 1,3,-1
 655.075195312 325.684570312 l 1,4,-1
 522.25 227.047851562 l 1,5,-1
 391.4375 325.684570312 l 1,0,-1
391.4375 982.684570312 m 1,6,-1
 391.4375 1098.01464844 l 1,7,-1
 522.25 1196.65234375 l 1,8,-1
 655.075195312 1098.01464844 l 1,9,-1
 655.075195312 982.684570312 l 1,10,-1
 522.25 884.047851562 l 1,11,-1
 391.4375 982.684570312 l 1,6,-1
123 163 m 1,12,-1
 123 619 l 1,13,-1
 188 684 l 1,14,-1
 253 619 l 1,15,-1
 253 163 l 1,16,-1
 188 98 l 1,17,-1
 123 163 l 1,12,-1
123 815 m 1,18,-1
 123 1271 l 1,19,-1
 188 1336 l 1,20,-1
 253 1271 l 1,21,-1
 253 815 l 1,22,-1
 188 750 l 1,23,-1
 123 815 l 1,18,-1
221 717 m 1,24,-1
 286 782 l 1,25,-1
 742 782 l 1,26,-1
 807 717 l 1,27,-1
 742 652 l 1,28,-1
 286 652 l 1,29,-1
 221 717 l 1,24,-1
EndSplineSet
EndChar

StartChar: y
Encoding: 121 121 91
AltUni2: 0000fd.ffffffff.0
Width: 1028
GlyphClass: 2
Flags: W
LayerCount: 2
Fore
SplineSet
123 815 m 1,0,-1
 123 1369 l 1,1,-1
 188 1434 l 1,2,-1
 253 1369 l 1,3,-1
 253 815 l 1,4,-1
 188 749 l 1,5,-1
 123 815 l 1,0,-1
221 65 m 1,6,-1
 286 130 l 1,7,-1
 742 130 l 1,8,-1
 807 65 l 1,9,-1
 742 0 l 1,10,-1
 286 0 l 1,11,-1
 221 65 l 1,6,-1
221 717 m 1,12,-1
 286 782 l 1,13,-1
 742 782 l 1,14,-1
 807 717 l 1,15,-1
 742 652 l 1,16,-1
 286 652 l 1,17,-1
 221 717 l 1,12,-1
775 163 m 1,18,-1
 775 619 l 1,19,-1
 840 684 l 1,20,-1
 905 619 l 1,21,-1
 905 163 l 1,22,-1
 840 98 l 1,23,-1
 775 163 l 1,18,-1
775 815 m 1,24,-1
 775 1369 l 1,25,-1
 840 1434 l 1,26,-1
 905 1369 l 1,27,-1
 905 815 l 1,28,-1
 840 749 l 1,29,-1
 775 815 l 1,24,-1
EndSplineSet
EndChar

StartChar: z
Encoding: 122 122 92
Width: 1028
GlyphClass: 2
Flags: W
LayerCount: 2
Fore
SplineSet
123 163 m 1,0,-1
 123 619 l 1,1,-1
 188 684 l 1,2,-1
 253 619 l 1,3,-1
 253 163 l 1,4,-1
 188 98 l 1,5,-1
 123 163 l 1,0,-1
221 717 m 1,6,-1
 286 782 l 1,7,-1
 742 782 l 1,8,-1
 807 717 l 1,9,-1
 742 652 l 1,10,-1
 286 652 l 1,11,-1
 221 717 l 1,6,-1
775 815 m 1,12,-1
 775 1271 l 1,13,-1
 840 1336 l 1,14,-1
 905 1271 l 1,15,-1
 905 815 l 1,16,-1
 840 750 l 1,17,-1
 775 815 l 1,12,-1
EndSplineSet
EndChar

StartChar: braceleft
Encoding: 123 123 93
Width: 1028
GlyphClass: 2
Flags: W
LayerCount: 2
Fore
SplineSet
391.4375 325.684570312 m 1,0,-1
 391.4375 441.014648438 l 1,1,-1
 522.25 539.65234375 l 1,2,-1
 655.075195312 441.014648438 l 1,3,-1
 655.075195312 325.684570312 l 1,4,-1
 522.25 227.047851562 l 1,5,-1
 391.4375 325.684570312 l 1,0,-1
391.4375 982.684570312 m 1,6,-1
 391.4375 1098.01464844 l 1,7,-1
 522.25 1196.65234375 l 1,8,-1
 655.075195312 1098.01464844 l 1,9,-1
 655.075195312 982.684570312 l 1,10,-1
 522.25 884.047851562 l 1,11,-1
 391.4375 982.684570312 l 1,6,-1
123 815 m 1,12,-1
 123 1271 l 1,13,-1
 188 1336 l 1,14,-1
 253 1271 l 1,15,-1
 253 815 l 1,16,-1
 188 750 l 1,17,-1
 123 815 l 1,12,-1
221 65 m 1,18,-1
 286 131 l 1,19,-1
 742 131 l 1,20,-1
 807 65 l 1,21,-1
 742 0 l 1,22,-1
 286 0 l 1,23,-1
 221 65 l 1,18,-1
221 717 m 1,24,-1
 286 782 l 1,25,-1
 742 782 l 1,26,-1
 807 717 l 1,27,-1
 742 652 l 1,28,-1
 286 652 l 1,29,-1
 221 717 l 1,24,-1
221 1369 m 1,30,-1
 286 1434 l 1,31,-1
 742 1434 l 1,32,-1
 807 1369 l 1,33,-1
 742 1304 l 1,34,-1
 286 1304 l 1,35,-1
 221 1369 l 1,30,-1
EndSplineSet
EndChar

StartChar: bar
Encoding: 124 124 94
Width: 1028
GlyphClass: 2
Flags: W
LayerCount: 2
Fore
SplineSet
391.4375 325.684570312 m 1,0,-1
 391.4375 441.014648438 l 1,1,-1
 522.25 539.65234375 l 1,2,-1
 655.075195312 441.014648438 l 1,3,-1
 655.075195312 325.684570312 l 1,4,-1
 522.25 227.047851562 l 1,5,-1
 391.4375 325.684570312 l 1,0,-1
391.4375 982.684570312 m 1,6,-1
 391.4375 1098.01464844 l 1,7,-1
 522.25 1196.65234375 l 1,8,-1
 655.075195312 1098.01464844 l 1,9,-1
 655.075195312 982.684570312 l 1,10,-1
 522.25 884.047851562 l 1,11,-1
 391.4375 982.684570312 l 1,6,-1
123 163 m 1,12,-1
 123 619 l 1,13,-1
 188 684 l 1,14,-1
 253 619 l 1,15,-1
 253 163 l 1,16,-1
 188 98 l 1,17,-1
 123 163 l 1,12,-1
775 163 m 1,18,-1
 775 619 l 1,19,-1
 840 684 l 1,20,-1
 905 619 l 1,21,-1
 905 163 l 1,22,-1
 840 98 l 1,23,-1
 775 163 l 1,18,-1
EndSplineSet
EndChar

StartChar: braceright
Encoding: 125 125 95
Width: 1028
GlyphClass: 2
Flags: W
LayerCount: 2
Fore
SplineSet
391.4375 325.684570312 m 1,0,-1
 391.4375 441.014648438 l 1,1,-1
 522.25 539.65234375 l 1,2,-1
 655.075195312 441.014648438 l 1,3,-1
 655.075195312 325.684570312 l 1,4,-1
 522.25 227.047851562 l 1,5,-1
 391.4375 325.684570312 l 1,0,-1
391.4375 982.684570312 m 1,6,-1
 391.4375 1098.01464844 l 1,7,-1
 522.25 1196.65234375 l 1,8,-1
 655.075195312 1098.01464844 l 1,9,-1
 655.075195312 982.684570312 l 1,10,-1
 522.25 884.047851562 l 1,11,-1
 391.4375 982.684570312 l 1,6,-1
221 65 m 1,12,-1
 286 131 l 1,13,-1
 742 131 l 1,14,-1
 807 65 l 1,15,-1
 742 0 l 1,16,-1
 286 0 l 1,17,-1
 221 65 l 1,12,-1
221 717 m 1,18,-1
 286 782 l 1,19,-1
 742 782 l 1,20,-1
 807 717 l 1,21,-1
 742 652 l 1,22,-1
 286 652 l 1,23,-1
 221 717 l 1,18,-1
221 1369 m 1,24,-1
 286 1434 l 1,25,-1
 742 1434 l 1,26,-1
 807 1369 l 1,27,-1
 742 1304 l 1,28,-1
 286 1304 l 1,29,-1
 221 1369 l 1,24,-1
775 815 m 1,30,-1
 775 1271 l 1,31,-1
 840 1336 l 1,32,-1
 905 1271 l 1,33,-1
 905 815 l 1,34,-1
 840 750 l 1,35,-1
 775 815 l 1,30,-1
EndSplineSet
EndChar

StartChar: copyright
Encoding: 169 169 97
Width: 1026
GlyphClass: 2
Flags: W
LayerCount: 2
Fore
SplineSet
123 166 m 1,0,-1
 123 717 l 1,1,-1
 188 782 l 1,2,-1
 253 717 l 1,3,-1
 253 166 l 1,4,-1
 188 101 l 1,5,-1
 123 166 l 1,0,-1
220 65 m 1,6,-1
 285 130 l 1,7,-1
 740 130 l 1,8,-1
 805 65 l 1,9,-1
 740 0 l 1,10,-1
 285 0 l 1,11,-1
 220 65 l 1,6,-1
220 815 m 1,12,-1
 285 880 l 1,13,-1
 740 880 l 1,14,-1
 805 815 l 1,15,-1
 740 750 l 1,16,-1
 285 750 l 1,17,-1
 220 815 l 1,12,-1
348 330 m 1,18,-1
 348 550 l 1,19,-1
 379 581 l 1,20,-1
 410 550 l 1,21,-1
 410 330 l 1,22,-1
 379 299 l 1,23,-1
 348 330 l 1,18,-1
395 283 m 1,24,-1
 426 314 l 1,25,-1
 646 314 l 1,26,-1
 677 283 l 1,27,-1
 646 251 l 1,28,-1
 426 251 l 1,29,-1
 395 283 l 1,24,-1
395 597 m 1,30,-1
 426 628 l 1,31,-1
 646 628 l 1,32,-1
 677 597 l 1,33,-1
 646 565 l 1,34,-1
 426 565 l 1,35,-1
 395 597 l 1,30,-1
772 166 m 1,36,-1
 772 717 l 1,37,-1
 837 782 l 1,38,-1
 902 717 l 1,39,-1
 902 166 l 1,40,-1
 837 101 l 1,41,-1
 772 166 l 1,36,-1
EndSplineSet
EndChar

StartChar: guillemotleft
Encoding: 171 171 98
Width: 921
GlyphClass: 2
Flags: W
LayerCount: 2
Fore
SplineSet
123 609 m 1,0,-1
 160 694 l 1,1,-1
 244 657 l 1,2,-1
 470 84 l 1,3,-1
 433 0 l 1,4,-1
 349 37 l 1,5,-1
 123 609 l 1,0,-1
123 826 m 1,6,-1
 349 1399 l 1,7,-1
 433 1436 l 1,8,-1
 470 1351 l 1,9,-1
 244 779 l 1,10,-1
 160 742 l 1,11,-1
 123 826 l 1,6,-1
450 609 m 1,12,-1
 487 694 l 1,13,-1
 571 657 l 1,14,-1
 797 84 l 1,15,-1
 760 0 l 1,16,-1
 676 37 l 1,17,-1
 450 609 l 1,12,-1
450 826 m 1,18,-1
 676 1399 l 1,19,-1
 760 1436 l 1,20,-1
 797 1351 l 1,21,-1
 571 779 l 1,22,-1
 487 742 l 1,23,-1
 450 826 l 1,18,-1
EndSplineSet
EndChar

StartChar: guillemotright
Encoding: 187 187 100
Width: 921
GlyphClass: 2
Flags: W
LayerCount: 2
Fore
SplineSet
123 84 m 1,0,-1
 349 657 l 1,1,-1
 433 694 l 1,2,-1
 470 609 l 1,3,-1
 244 37 l 1,4,-1
 160 0 l 1,5,-1
 123 84 l 1,0,-1
123 1351 m 1,6,-1
 160 1436 l 1,7,-1
 244 1399 l 1,8,-1
 470 826 l 1,9,-1
 433 742 l 1,10,-1
 349 779 l 1,11,-1
 123 1351 l 1,6,-1
450 84 m 1,12,-1
 676 657 l 1,13,-1
 760 694 l 1,14,-1
 797 609 l 1,15,-1
 571 37 l 1,16,-1
 487 0 l 1,17,-1
 450 84 l 1,12,-1
450 1351 m 1,18,-1
 487 1436 l 1,19,-1
 571 1399 l 1,20,-1
 797 826 l 1,21,-1
 760 742 l 1,22,-1
 676 779 l 1,23,-1
 450 1351 l 1,18,-1
EndSplineSet
EndChar

StartChar: Aacute
Encoding: 193 193 101
Width: 1028
GlyphClass: 2
Flags: W
LayerCount: 2
Fore
SplineSet
123 65 m 1,0,-1
 123 619 l 1,1,-1
 188 684 l 1,2,-1
 253 619 l 1,3,-1
 253 65 l 1,4,-1
 188 0 l 1,5,-1
 123 65 l 1,0,-1
123 814 m 1,6,-1
 123 1271 l 1,7,-1
 188 1336 l 1,8,-1
 253 1271 l 1,9,-1
 253 814 l 1,10,-1
 188 749 l 1,11,-1
 123 814 l 1,6,-1
221 717 m 1,12,-1
 286 782 l 1,13,-1
 742 782 l 1,14,-1
 807 717 l 1,15,-1
 742 652 l 1,16,-1
 286 652 l 1,17,-1
 221 717 l 1,12,-1
221 1368 m 1,18,-1
 286 1433 l 1,19,-1
 742 1433 l 1,20,-1
 807 1368 l 1,21,-1
 742 1303 l 1,22,-1
 286 1303 l 1,23,-1
 221 1368 l 1,18,-1
452 1500 m 1,24,-1
 452 1592 l 1,25,-1
 630 1770 l 1,26,-1
 722 1770 l 1,27,-1
 722 1678 l 1,28,-1
 544 1500 l 1,29,-1
 452 1500 l 1,24,-1
775 65 m 1,30,-1
 775 619 l 1,31,-1
 840 684 l 1,32,-1
 905 619 l 1,33,-1
 905 65 l 1,34,-1
 840 0 l 1,35,-1
 775 65 l 1,30,-1
775 814 m 1,36,-1
 775 1271 l 1,37,-1
 840 1336 l 1,38,-1
 905 1271 l 1,39,-1
 905 814 l 1,40,-1
 840 749 l 1,41,-1
 775 814 l 1,36,-1
EndSplineSet
EndChar

StartChar: Adieresis
Encoding: 196 196 102
Width: 1028
GlyphClass: 2
Flags: W
LayerCount: 2
Fore
SplineSet
123 65 m 1,0,-1
 123 619 l 1,1,-1
 188 684 l 1,2,-1
 253 619 l 1,3,-1
 253 65 l 1,4,-1
 188 0 l 1,5,-1
 123 65 l 1,0,-1
123 814 m 1,6,-1
 123 1271 l 1,7,-1
 188 1336 l 1,8,-1
 253 1271 l 1,9,-1
 253 814 l 1,10,-1
 188 749 l 1,11,-1
 123 814 l 1,6,-1
221 717 m 1,12,-1
 286 782 l 1,13,-1
 742 782 l 1,14,-1
 807 717 l 1,15,-1
 742 652 l 1,16,-1
 286 652 l 1,17,-1
 221 717 l 1,12,-1
221 1368 m 1,18,-1
 286 1433 l 1,19,-1
 742 1433 l 1,20,-1
 807 1368 l 1,21,-1
 742 1303 l 1,22,-1
 286 1303 l 1,23,-1
 221 1368 l 1,18,-1
285 1559 m 5,24,-1
 285 1635 l 5,25,-1
 350 1700 l 5,26,-1
 416 1635 l 5,27,-1
 416 1559 l 5,28,-1
 350 1494 l 5,29,-1
 285 1559 l 5,24,-1
612 1559 m 1,30,-1
 612 1635 l 1,31,-1
 677 1700 l 1,32,-1
 742 1635 l 1,33,-1
 742 1559 l 1,34,-1
 677 1494 l 1,35,-1
 612 1559 l 1,30,-1
775 65 m 1,36,-1
 775 619 l 1,37,-1
 840 684 l 1,38,-1
 905 619 l 1,39,-1
 905 65 l 1,40,-1
 840 0 l 1,41,-1
 775 65 l 1,36,-1
775 814 m 1,42,-1
 775 1271 l 1,43,-1
 840 1336 l 1,44,-1
 905 1271 l 1,45,-1
 905 814 l 1,46,-1
 840 749 l 1,47,-1
 775 814 l 1,42,-1
EndSplineSet
EndChar

StartChar: Ccedilla
Encoding: 199 199 103
Width: 931
GlyphClass: 2
Flags: W
LayerCount: 2
Fore
SplineSet
123 162 m 1,0,-1
 123 618 l 1,1,-1
 188 683 l 1,2,-1
 253 618 l 1,3,-1
 253 162 l 1,4,-1
 188 97 l 1,5,-1
 123 162 l 1,0,-1
123 814 m 1,6,-1
 123 1270 l 1,7,-1
 188 1335 l 1,8,-1
 253 1270 l 1,9,-1
 253 814 l 1,10,-1
 188 748 l 1,11,-1
 123 814 l 1,6,-1
221 64 m 1,12,-1
 286 129 l 1,13,-1
 742 129 l 1,14,-1
 807 64 l 1,15,-1
 742 -1 l 1,16,-1
 286 -1 l 1,17,-1
 221 64 l 1,12,-1
221 1367 m 1,18,-1
 286 1433 l 1,19,-1
 742 1433 l 1,20,-1
 807 1367 l 1,21,-1
 742 1302 l 1,22,-1
 286 1302 l 1,23,-1
 221 1367 l 1,18,-1
400 -125 m 1,24,-1
 465 -60 l 1,25,-1
 530 -125 l 1,26,-1
 530 -201 l 1,27,-1
 465 -266 l 1,28,-1
 400 -201 l 1,29,-1
 400 -125 l 1,24,-1
EndSplineSet
EndChar

StartChar: Eacute
Encoding: 201 201 104
Width: 931
GlyphClass: 2
Flags: W
LayerCount: 2
Fore
SplineSet
123 163 m 1,0,-1
 123 619 l 1,1,-1
 188 684 l 1,2,-1
 253 619 l 1,3,-1
 253 163 l 1,4,-1
 188 98 l 1,5,-1
 123 163 l 1,0,-1
123 815 m 1,6,-1
 123 1271 l 1,7,-1
 188 1336 l 1,8,-1
 253 1271 l 1,9,-1
 253 815 l 1,10,-1
 188 749 l 1,11,-1
 123 815 l 1,6,-1
221 65 m 1,12,-1
 286 130 l 1,13,-1
 742 130 l 1,14,-1
 807 65 l 1,15,-1
 742 0 l 1,16,-1
 286 0 l 1,17,-1
 221 65 l 1,12,-1
221 717 m 1,18,-1
 286 782 l 1,19,-1
 742 782 l 1,20,-1
 807 717 l 1,21,-1
 742 652 l 1,22,-1
 286 652 l 1,23,-1
 221 717 l 1,18,-1
221 1368 m 1,24,-1
 286 1434 l 1,25,-1
 742 1434 l 1,26,-1
 807 1368 l 1,27,-1
 742 1303 l 1,28,-1
 286 1303 l 1,29,-1
 221 1368 l 1,24,-1
406 1500 m 1,30,-1
 406 1592 l 1,31,-1
 584 1770 l 1,32,-1
 676 1770 l 1,33,-1
 676 1678 l 1,34,-1
 498 1500 l 1,35,-1
 406 1500 l 1,30,-1
EndSplineSet
EndChar

StartChar: Edieresis
Encoding: 203 203 105
Width: 931
GlyphClass: 2
Flags: W
LayerCount: 2
Fore
SplineSet
123 163 m 1,0,-1
 123 619 l 1,1,-1
 188 684 l 1,2,-1
 253 619 l 1,3,-1
 253 163 l 1,4,-1
 188 98 l 1,5,-1
 123 163 l 1,0,-1
123 815 m 1,6,-1
 123 1271 l 1,7,-1
 188 1336 l 1,8,-1
 253 1271 l 1,9,-1
 253 815 l 1,10,-1
 188 749 l 1,11,-1
 123 815 l 1,6,-1
221 65 m 1,12,-1
 286 130 l 1,13,-1
 742 130 l 1,14,-1
 807 65 l 1,15,-1
 742 0 l 1,16,-1
 286 0 l 1,17,-1
 221 65 l 1,12,-1
221 717 m 1,18,-1
 286 782 l 1,19,-1
 742 782 l 1,20,-1
 807 717 l 1,21,-1
 742 652 l 1,22,-1
 286 652 l 1,23,-1
 221 717 l 1,18,-1
221 1368 m 1,24,-1
 286 1434 l 1,25,-1
 742 1434 l 1,26,-1
 807 1368 l 1,27,-1
 742 1303 l 1,28,-1
 286 1303 l 1,29,-1
 221 1368 l 1,24,-1
236 1560 m 1,30,-1
 236 1636 l 1,31,-1
 302 1701 l 1,32,-1
 367 1636 l 1,33,-1
 367 1560 l 1,34,-1
 302 1494 l 1,35,-1
 236 1560 l 1,30,-1
563 1560 m 1,36,-1
 563 1636 l 1,37,-1
 628 1701 l 1,38,-1
 694 1636 l 1,39,-1
 694 1560 l 1,40,-1
 628 1494 l 1,41,-1
 563 1560 l 1,36,-1
EndSplineSet
EndChar

StartChar: Ograve
Encoding: 210 210 106
Width: 1028
GlyphClass: 2
Flags: W
LayerCount: 2
Fore
SplineSet
123 163 m 1,0,-1
 123 619 l 1,1,-1
 188 684 l 1,2,-1
 253 619 l 1,3,-1
 253 163 l 1,4,-1
 188 98 l 1,5,-1
 123 163 l 1,0,-1
123 815 m 1,6,-1
 123 1271 l 1,7,-1
 188 1336 l 1,8,-1
 253 1271 l 1,9,-1
 253 815 l 1,10,-1
 188 749 l 1,11,-1
 123 815 l 1,6,-1
221 65 m 1,12,-1
 286 130 l 1,13,-1
 742 130 l 1,14,-1
 807 65 l 1,15,-1
 742 0 l 1,16,-1
 286 0 l 1,17,-1
 221 65 l 1,12,-1
221 1368 m 1,18,-1
 286 1434 l 1,19,-1
 742 1434 l 1,20,-1
 807 1368 l 1,21,-1
 742 1303 l 1,22,-1
 286 1303 l 1,23,-1
 221 1368 l 1,18,-1
379 1500 m 1,24,-1
 379 1592 l 1,25,-1
 557 1770 l 1,26,-1
 649 1770 l 1,27,-1
 649 1678 l 1,28,-1
 471 1500 l 1,29,-1
 379 1500 l 1,24,-1
775 163 m 1,30,-1
 775 619 l 1,31,-1
 840 684 l 1,32,-1
 905 619 l 1,33,-1
 905 163 l 1,34,-1
 840 98 l 1,35,-1
 775 163 l 1,30,-1
775 815 m 1,36,-1
 775 1271 l 1,37,-1
 840 1336 l 1,38,-1
 905 1271 l 1,39,-1
 905 815 l 1,40,-1
 840 749 l 1,41,-1
 775 815 l 1,36,-1
EndSplineSet
EndChar

StartChar: Odieresis
Encoding: 214 214 107
Width: 1028
GlyphClass: 2
Flags: W
LayerCount: 2
Fore
SplineSet
123 163 m 1,0,-1
 123 619 l 1,1,-1
 188 684 l 1,2,-1
 253 619 l 1,3,-1
 253 163 l 1,4,-1
 188 98 l 1,5,-1
 123 163 l 1,0,-1
123 815 m 1,6,-1
 123 1271 l 1,7,-1
 188 1336 l 1,8,-1
 253 1271 l 1,9,-1
 253 815 l 1,10,-1
 188 749 l 1,11,-1
 123 815 l 1,6,-1
221 65 m 1,12,-1
 286 130 l 1,13,-1
 742 130 l 1,14,-1
 807 65 l 1,15,-1
 742 0 l 1,16,-1
 286 0 l 1,17,-1
 221 65 l 1,12,-1
221 1368 m 1,18,-1
 286 1434 l 1,19,-1
 742 1434 l 1,20,-1
 807 1368 l 1,21,-1
 742 1303 l 1,22,-1
 286 1303 l 1,23,-1
 221 1368 l 1,18,-1
285 1560 m 1,24,-1
 285 1636 l 1,25,-1
 350 1701 l 1,26,-1
 416 1636 l 1,27,-1
 416 1560 l 1,28,-1
 350 1494 l 1,29,-1
 285 1560 l 1,24,-1
612 1560 m 1,30,-1
 612 1636 l 1,31,-1
 677 1701 l 1,32,-1
 742 1636 l 1,33,-1
 742 1560 l 1,34,-1
 677 1494 l 1,35,-1
 612 1560 l 1,30,-1
775 163 m 1,36,-1
 775 619 l 1,37,-1
 840 684 l 1,38,-1
 905 619 l 1,39,-1
 905 163 l 1,40,-1
 840 98 l 1,41,-1
 775 163 l 1,36,-1
775 815 m 1,42,-1
 775 1271 l 1,43,-1
 840 1336 l 1,44,-1
 905 1271 l 1,45,-1
 905 815 l 1,46,-1
 840 749 l 1,47,-1
 775 815 l 1,42,-1
EndSplineSet
EndChar

StartChar: Ugrave
Encoding: 217 217 108
Width: 1028
GlyphClass: 2
Flags: W
LayerCount: 2
Fore
SplineSet
123 163 m 1,0,-1
 123 619 l 1,1,-1
 188 684 l 1,2,-1
 253 619 l 1,3,-1
 253 163 l 1,4,-1
 188 98 l 1,5,-1
 123 163 l 1,0,-1
123 815 m 1,6,-1
 123 1368 l 1,7,-1
 188 1434 l 1,8,-1
 253 1368 l 1,9,-1
 253 815 l 1,10,-1
 188 749 l 1,11,-1
 123 815 l 1,6,-1
221 65 m 1,12,-1
 286 130 l 1,13,-1
 742 130 l 1,14,-1
 807 65 l 1,15,-1
 742 0 l 1,16,-1
 286 0 l 1,17,-1
 221 65 l 1,12,-1
379 1500 m 1,18,-1
 379 1592 l 1,19,-1
 557 1770 l 1,20,-1
 649 1770 l 1,21,-1
 649 1678 l 1,22,-1
 471 1500 l 1,23,-1
 379 1500 l 1,18,-1
775 163 m 1,24,-1
 775 619 l 1,25,-1
 840 684 l 1,26,-1
 905 619 l 1,27,-1
 905 163 l 1,28,-1
 840 98 l 1,29,-1
 775 163 l 1,24,-1
775 815 m 1,30,-1
 775 1368 l 1,31,-1
 840 1434 l 1,32,-1
 905 1368 l 1,33,-1
 905 815 l 1,34,-1
 840 749 l 1,35,-1
 775 815 l 1,30,-1
EndSplineSet
EndChar

StartChar: Udieresis
Encoding: 220 220 109
Width: 1028
GlyphClass: 2
Flags: W
LayerCount: 2
Fore
SplineSet
123 163 m 1,0,-1
 123 619 l 1,1,-1
 188 684 l 1,2,-1
 253 619 l 1,3,-1
 253 163 l 1,4,-1
 188 98 l 1,5,-1
 123 163 l 1,0,-1
123 815 m 1,6,-1
 123 1368 l 1,7,-1
 188 1434 l 1,8,-1
 253 1368 l 1,9,-1
 253 815 l 1,10,-1
 188 749 l 1,11,-1
 123 815 l 1,6,-1
221 65 m 1,12,-1
 286 130 l 1,13,-1
 742 130 l 1,14,-1
 807 65 l 1,15,-1
 742 0 l 1,16,-1
 286 0 l 1,17,-1
 221 65 l 1,12,-1
285 1560 m 1,18,-1
 285 1636 l 1,19,-1
 350 1701 l 1,20,-1
 416 1636 l 1,21,-1
 416 1560 l 1,22,-1
 350 1494 l 1,23,-1
 285 1560 l 1,18,-1
612 1560 m 1,24,-1
 612 1636 l 1,25,-1
 677 1701 l 1,26,-1
 742 1636 l 1,27,-1
 742 1560 l 1,28,-1
 677 1494 l 1,29,-1
 612 1560 l 1,24,-1
775 163 m 1,30,-1
 775 619 l 1,31,-1
 840 684 l 1,32,-1
 905 619 l 1,33,-1
 905 163 l 1,34,-1
 840 98 l 1,35,-1
 775 163 l 1,30,-1
775 815 m 1,36,-1
 775 1368 l 1,37,-1
 840 1434 l 1,38,-1
 905 1368 l 1,39,-1
 905 815 l 1,40,-1
 840 749 l 1,41,-1
 775 815 l 1,36,-1
EndSplineSet
EndChar

StartChar: germandbls
Encoding: 223 223 110
Width: 931
GlyphClass: 2
Flags: W
LayerCount: 2
Fore
SplineSet
123 65 m 1,0,-1
 188 130 l 1,1,-1
 644 130 l 1,2,-1
 709 65 l 1,3,-1
 644 0 l 1,4,-1
 188 0 l 1,5,-1
 123 65 l 1,0,-1
123 717 m 1,6,-1
 188 782 l 1,7,-1
 644 782 l 1,8,-1
 709 717 l 1,9,-1
 644 652 l 1,10,-1
 188 652 l 1,11,-1
 123 717 l 1,6,-1
123 1368 m 1,12,-1
 188 1434 l 1,13,-1
 644 1434 l 1,14,-1
 709 1368 l 1,15,-1
 644 1303 l 1,16,-1
 188 1303 l 1,17,-1
 123 1368 l 1,12,-1
299 239 m 1,18,-1
 299 543 l 1,19,-1
 364 608 l 1,20,-1
 429 543 l 1,21,-1
 429 239 l 1,22,-1
 364 174 l 1,23,-1
 299 239 l 1,18,-1
299 891 m 1,24,-1
 299 1195 l 1,25,-1
 364 1260 l 1,26,-1
 429 1195 l 1,27,-1
 429 891 l 1,28,-1
 364 825 l 1,29,-1
 299 891 l 1,24,-1
677 163 m 1,30,-1
 677 619 l 1,31,-1
 742 684 l 1,32,-1
 807 619 l 1,33,-1
 807 163 l 1,34,-1
 742 98 l 1,35,-1
 677 163 l 1,30,-1
677 815 m 1,36,-1
 677 1271 l 1,37,-1
 742 1336 l 1,38,-1
 807 1271 l 1,39,-1
 807 815 l 1,40,-1
 742 749 l 1,41,-1
 677 815 l 1,36,-1
EndSplineSet
EndChar

StartChar: ccedilla
Encoding: 231 231 111
Width: 931
GlyphClass: 2
Flags: W
LayerCount: 2
Fore
SplineSet
123 162 m 1,0,-1
 123 618 l 1,1,-1
 188 683 l 1,2,-1
 253 618 l 1,3,-1
 253 162 l 1,4,-1
 188 97 l 1,5,-1
 123 162 l 1,0,-1
123 814 m 1,6,-1
 123 1270 l 1,7,-1
 188 1335 l 1,8,-1
 253 1270 l 1,9,-1
 253 814 l 1,10,-1
 188 748 l 1,11,-1
 123 814 l 1,6,-1
221 64 m 1,12,-1
 286 129 l 1,13,-1
 742 129 l 1,14,-1
 807 64 l 1,15,-1
 742 -1 l 1,16,-1
 286 -1 l 1,17,-1
 221 64 l 1,12,-1
221 1367 m 1,18,-1
 286 1433 l 1,19,-1
 742 1433 l 1,20,-1
 807 1367 l 1,21,-1
 742 1302 l 1,22,-1
 286 1302 l 1,23,-1
 221 1367 l 1,18,-1
400 -125 m 1,24,-1
 465 -60 l 1,25,-1
 530 -125 l 1,26,-1
 530 -201 l 1,27,-1
 465 -266 l 1,28,-1
 400 -201 l 1,29,-1
 400 -125 l 1,24,-1
EndSplineSet
EndChar

StartChar: odieresis
Encoding: 246 246 112
Width: 1028
GlyphClass: 2
Flags: W
LayerCount: 2
Fore
SplineSet
123 163 m 1,0,-1
 123 619 l 1,1,-1
 188 684 l 1,2,-1
 253 619 l 1,3,-1
 253 163 l 1,4,-1
 188 98 l 1,5,-1
 123 163 l 1,0,-1
123 815 m 1,6,-1
 123 1271 l 1,7,-1
 188 1336 l 1,8,-1
 253 1271 l 1,9,-1
 253 815 l 1,10,-1
 188 749 l 1,11,-1
 123 815 l 1,6,-1
221 65 m 1,12,-1
 286 130 l 1,13,-1
 742 130 l 1,14,-1
 807 65 l 1,15,-1
 742 0 l 1,16,-1
 286 0 l 1,17,-1
 221 65 l 1,12,-1
221 1368 m 1,18,-1
 286 1434 l 1,19,-1
 742 1434 l 1,20,-1
 807 1368 l 1,21,-1
 742 1303 l 1,22,-1
 286 1303 l 1,23,-1
 221 1368 l 1,18,-1
285 1560 m 1,24,-1
 285 1636 l 1,25,-1
 350 1701 l 1,26,-1
 416 1636 l 1,27,-1
 416 1560 l 1,28,-1
 350 1494 l 1,29,-1
 285 1560 l 1,24,-1
612 1560 m 1,30,-1
 612 1636 l 1,31,-1
 677 1701 l 1,32,-1
 742 1636 l 1,33,-1
 742 1560 l 1,34,-1
 677 1494 l 1,35,-1
 612 1560 l 1,30,-1
775 163 m 1,36,-1
 775 619 l 1,37,-1
 840 684 l 1,38,-1
 905 619 l 1,39,-1
 905 163 l 1,40,-1
 840 98 l 1,41,-1
 775 163 l 1,36,-1
775 815 m 1,42,-1
 775 1271 l 1,43,-1
 840 1336 l 1,44,-1
 905 1271 l 1,45,-1
 905 815 l 1,46,-1
 840 749 l 1,47,-1
 775 815 l 1,42,-1
EndSplineSet
EndChar

StartChar: divide
Encoding: 247 247 113
Width: 1126
GlyphClass: 2
Flags: W
LayerCount: 2
Fore
SplineSet
123 396 m 1,0,-1
 188 461 l 1,1,-1
 936 461 l 1,2,-1
 1002 396 l 1,3,-1
 936 331 l 1,4,-1
 188 331 l 1,5,-1
 123 396 l 1,0,-1
497 65 m 1,6,-1
 497 132 l 1,7,-1
 562 198 l 1,8,-1
 627 132 l 1,9,-1
 627 65 l 1,10,-1
 562 0 l 1,11,-1
 497 65 l 1,6,-1
497 666 m 1,12,-1
 497 733 l 1,13,-1
 562 798 l 1,14,-1
 627 733 l 1,15,-1
 627 666 l 1,16,-1
 562 600 l 1,17,-1
 497 666 l 1,12,-1
EndSplineSet
EndChar

StartChar: udieresis
Encoding: 252 252 114
Width: 1028
GlyphClass: 2
Flags: W
LayerCount: 2
Fore
SplineSet
123 163 m 1,0,-1
 123 619 l 1,1,-1
 188 684 l 1,2,-1
 253 619 l 1,3,-1
 253 163 l 1,4,-1
 188 98 l 1,5,-1
 123 163 l 1,0,-1
123 815 m 1,6,-1
 123 1368 l 1,7,-1
 188 1434 l 1,8,-1
 253 1368 l 1,9,-1
 253 815 l 1,10,-1
 188 749 l 1,11,-1
 123 815 l 1,6,-1
221 65 m 1,12,-1
 286 130 l 1,13,-1
 742 130 l 1,14,-1
 807 65 l 1,15,-1
 742 0 l 1,16,-1
 286 0 l 1,17,-1
 221 65 l 1,12,-1
285 1560 m 1,18,-1
 285 1636 l 1,19,-1
 350 1701 l 1,20,-1
 416 1636 l 1,21,-1
 416 1560 l 1,22,-1
 350 1494 l 1,23,-1
 285 1560 l 1,18,-1
612 1560 m 1,24,-1
 612 1636 l 1,25,-1
 677 1701 l 1,26,-1
 742 1636 l 1,27,-1
 742 1560 l 1,28,-1
 677 1494 l 1,29,-1
 612 1560 l 1,24,-1
775 163 m 1,30,-1
 775 619 l 1,31,-1
 840 684 l 1,32,-1
 905 619 l 1,33,-1
 905 163 l 1,34,-1
 840 98 l 1,35,-1
 775 163 l 1,30,-1
775 815 m 1,36,-1
 775 1368 l 1,37,-1
 840 1434 l 1,38,-1
 905 1368 l 1,39,-1
 905 815 l 1,40,-1
 840 749 l 1,41,-1
 775 815 l 1,36,-1
EndSplineSet
EndChar

StartChar: uni2010
Encoding: 8208 8208 126
Width: 831
GlyphClass: 2
Flags: W
LayerCount: 2
Fore
SplineSet
123 716 m 1,0,-1
 188 782 l 1,1,-1
 644 782 l 1,2,-1
 709 716 l 1,3,-1
 644 651 l 1,4,-1
 188 651 l 1,5,-1
 123 716 l 1,0,-1
EndSplineSet
EndChar

StartChar: uni2011
Encoding: 8209 8209 127
Width: 831
GlyphClass: 2
Flags: W
LayerCount: 2
Fore
SplineSet
123 716 m 1,0,-1
 188 782 l 1,1,-1
 644 782 l 1,2,-1
 709 716 l 1,3,-1
 644 651 l 1,4,-1
 188 651 l 1,5,-1
 123 716 l 1,0,-1
EndSplineSet
EndChar

StartChar: figuredash
Encoding: 8210 8210 128
Width: 831
GlyphClass: 2
Flags: W
LayerCount: 2
Fore
SplineSet
123 716 m 1,0,-1
 188 782 l 1,1,-1
 644 782 l 1,2,-1
 709 716 l 1,3,-1
 644 651 l 1,4,-1
 188 651 l 1,5,-1
 123 716 l 1,0,-1
EndSplineSet
EndChar

StartChar: endash
Encoding: 8211 8211 129
Width: 1269
GlyphClass: 2
Flags: W
LayerCount: 2
Fore
SplineSet
123 716 m 1,0,-1
 237 782 l 1,1,-1
 1033 782 l 1,2,-1
 1147 716 l 1,3,-1
 1033 651 l 1,4,-1
 237 651 l 1,5,-1
 123 716 l 1,0,-1
EndSplineSet
EndChar

StartChar: emdash
Encoding: 8212 8212 130
Width: 2293
GlyphClass: 2
Flags: W
LayerCount: 2
Fore
SplineSet
123 716 m 1,0,-1
 350 782 l 1,1,-1
 1944 782 l 1,2,-1
 2171 716 l 1,3,-1
 1944 651 l 1,4,-1
 350 651 l 1,5,-1
 123 716 l 1,0,-1
EndSplineSet
EndChar

StartChar: quoteleft
Encoding: 8216 8216 131
Width: 557
GlyphClass: 2
Flags: W
LayerCount: 2
Fore
SplineSet
123 -167 m 1,0,-1
 320 174 l 1,1,-1
 409 197 l 1,2,-1
 432 108 l 1,3,-1
 236 -232 l 1,4,-1
 147 -256 l 1,5,-1
 123 -167 l 1,0,-1
EndSplineSet
EndChar

StartChar: Euro
Encoding: 8364 8364 134
Width: 931
GlyphClass: 2
Flags: W
LayerCount: 2
Fore
SplineSet
123 163 m 1,0,-1
 123 619 l 1,1,-1
 188 684 l 1,2,-1
 253 619 l 1,3,-1
 253 163 l 1,4,-1
 188 98 l 1,5,-1
 123 163 l 1,0,-1
123 815 m 1,6,-1
 123 1271 l 1,7,-1
 188 1336 l 1,8,-1
 253 1271 l 1,9,-1
 253 815 l 1,10,-1
 188 749 l 1,11,-1
 123 815 l 1,6,-1
221 65 m 1,12,-1
 286 130 l 1,13,-1
 742 130 l 1,14,-1
 807 65 l 1,15,-1
 742 0 l 1,16,-1
 286 0 l 1,17,-1
 221 65 l 1,12,-1
221 717 m 1,18,-1
 286 782 l 1,19,-1
 742 782 l 1,20,-1
 807 717 l 1,21,-1
 742 652 l 1,22,-1
 286 652 l 1,23,-1
 221 717 l 1,18,-1
221 1368 m 1,24,-1
 286 1434 l 1,25,-1
 742 1434 l 1,26,-1
 807 1368 l 1,27,-1
 742 1303 l 1,28,-1
 286 1303 l 1,29,-1
 221 1368 l 1,24,-1
327 420 m 1,30,-1
 392 486 l 1,31,-1
 642 486 l 1,32,-1
 707 420 l 1,33,-1
 642 355 l 1,34,-1
 392 355 l 1,35,-1
 327 420 l 1,30,-1
327 1013 m 1,36,-1
 392 1078 l 1,37,-1
 642 1078 l 1,38,-1
 707 1013 l 1,39,-1
 642 948 l 1,40,-1
 392 948 l 1,41,-1
 327 1013 l 1,36,-1
EndSplineSet
EndChar

StartChar: uni25FC
Encoding: 9724 9724 135
Width: 1433
GlyphClass: 2
Flags: W
LayerCount: 2
Fore
SplineSet
0 0 m 1,0,-1
 0 1434 l 1,1,-1
 1434 1434 l 1,2,-1
 1434 0 l 1,3,-1
 0 0 l 1,0,-1
EndSplineSet
EndChar

StartChar: uni0087
Encoding: 135 135 136
Width: 1028
Flags: W
LayerCount: 2
Fore
SplineSet
391.4375 325.684570312 m 5,0,-1
 391.4375 441.014648438 l 5,1,-1
 522.25 539.65234375 l 5,2,-1
 655.075195312 441.014648438 l 5,3,-1
 655.075195312 325.684570312 l 5,4,-1
 522.25 227.047851562 l 5,5,-1
 391.4375 325.684570312 l 5,0,-1
391.4375 982.684570312 m 5,6,-1
 391.4375 1098.01464844 l 5,7,-1
 522.25 1196.65234375 l 5,8,-1
 655.075195312 1098.01464844 l 5,9,-1
 655.075195312 982.684570312 l 5,10,-1
 522.25 884.047851562 l 5,11,-1
 391.4375 982.684570312 l 5,6,-1
123 163 m 1,12,-1
 123 619 l 1,13,-1
 188 684 l 1,14,-1
 253 619 l 1,15,-1
 253 163 l 1,16,-1
 188 98 l 1,17,-1
 123 163 l 1,12,-1
123 815 m 1,18,-1
 123 1271 l 1,19,-1
 188 1336 l 1,20,-1
 253 1271 l 1,21,-1
 253 815 l 1,22,-1
 188 750 l 1,23,-1
 123 815 l 1,18,-1
221 65 m 1,24,-1
 286 131 l 1,25,-1
 742 131 l 1,26,-1
 807 65 l 1,27,-1
 742 0 l 1,28,-1
 286 0 l 1,29,-1
 221 65 l 1,24,-1
221 717 m 1,30,-1
 286 782 l 1,31,-1
 742 782 l 1,32,-1
 807 717 l 1,33,-1
 742 652 l 1,34,-1
 286 652 l 1,35,-1
 221 717 l 1,30,-1
221 1369 m 1,36,-1
 286 1434 l 1,37,-1
 742 1434 l 1,38,-1
 807 1369 l 1,39,-1
 742 1304 l 1,40,-1
 286 1304 l 1,41,-1
 221 1369 l 1,36,-1
775 163 m 1,42,-1
 775 619 l 1,43,-1
 840 684 l 1,44,-1
 905 619 l 1,45,-1
 905 163 l 1,46,-1
 840 98 l 1,47,-1
 775 163 l 1,42,-1
775 815 m 1,48,-1
 775 1271 l 1,49,-1
 840 1336 l 1,50,-1
 905 1271 l 1,51,-1
 905 815 l 1,52,-1
 840 750 l 1,53,-1
 775 815 l 1,48,-1
EndSplineSet
EndChar

StartChar: uni0088
Encoding: 136 136 137
Width: 1028
Flags: W
LayerCount: 2
Fore
SplineSet
431.192382812 969.342773438 m 132,-1,1
 406.243164062 994.819335938 406.243164062 994.819335938 406.114257812 1033.34667969 c 4,2,3
 406.243164062 1071.81933594 406.243164062 1071.81933594 438.907226562 1103.375 c 4,4,5
 471.243164062 1134.81933594 471.243164062 1134.81933594 518 1135 c 4,6,7
 564.243164062 1134.81933594 564.243164062 1134.81933594 590.33984375 1107.13964844 c 4,8,9
 616.243164062 1078.81933594 616.243164062 1078.81933594 616.3828125 1041.62988281 c 4,10,11
 616.243164062 1003.81933594 616.243164062 1003.81933594 584.552734375 973.861328125 c 4,12,13
 552.243164062 943.819335938 552.243164062 943.819335938 504.497070312 943.7421875 c 4,14,0
 456.243164062 943.819335938 456.243164062 943.819335938 431.192382812 969.342773438 c 132,-1,1
430.94921875 317.5234375 m 132,-1,16
 406 343 406 343 405.87109375 381.52734375 c 4,17,18
 406 420 406 420 438.6640625 451.555664062 c 4,19,20
 471 483 471 483 517.756835938 483.180664062 c 4,21,22
 564 483 564 483 590.096679688 455.3203125 c 4,23,24
 616 427 616 427 616.139648438 389.810546875 c 4,25,26
 616 352 616 352 584.309570312 322.041992188 c 4,27,28
 552 292 552 292 504.25390625 291.922851562 c 4,29,15
 456 292 456 292 430.94921875 317.5234375 c 132,-1,16
123 163 m 1,30,-1
 123 619 l 1,31,-1
 188 684 l 1,32,-1
 253 619 l 1,33,-1
 253 163 l 1,34,-1
 188 98 l 1,35,-1
 123 163 l 1,30,-1
123 815 m 1,36,-1
 123 1271 l 1,37,-1
 188 1336 l 1,38,-1
 253 1271 l 1,39,-1
 253 815 l 1,40,-1
 188 750 l 1,41,-1
 123 815 l 1,36,-1
221 65 m 1,42,-1
 286 131 l 1,43,-1
 742 131 l 1,44,-1
 807 65 l 1,45,-1
 742 0 l 1,46,-1
 286 0 l 1,47,-1
 221 65 l 1,42,-1
221 717 m 1,48,-1
 286 782 l 1,49,-1
 742 782 l 1,50,-1
 807 717 l 1,51,-1
 742 652 l 1,52,-1
 286 652 l 1,53,-1
 221 717 l 1,48,-1
221 1369 m 1,54,-1
 286 1434 l 1,55,-1
 742 1434 l 1,56,-1
 807 1369 l 1,57,-1
 742 1304 l 1,58,-1
 286 1304 l 1,59,-1
 221 1369 l 1,54,-1
775 163 m 1,60,-1
 775 619 l 1,61,-1
 840 684 l 1,62,-1
 905 619 l 1,63,-1
 905 163 l 1,64,-1
 840 98 l 1,65,-1
 775 163 l 1,60,-1
775 815 m 1,66,-1
 775 1271 l 1,67,-1
 840 1336 l 1,68,-1
 905 1271 l 1,69,-1
 905 815 l 1,70,-1
 840 750 l 1,71,-1
 775 815 l 1,66,-1
EndSplineSet
EndChar

StartChar: semicolon
Encoding: 59 59 138
Width: 1028
Flags: W
LayerCount: 2
Fore
SplineSet
391.4375 325.684570312 m 1,0,-1
 391.4375 441.014648438 l 1,1,-1
 522.25 539.65234375 l 1,2,-1
 655.075195312 441.014648438 l 1,3,-1
 655.075195312 325.684570312 l 1,4,-1
 522.25 227.047851562 l 1,5,-1
 391.4375 325.684570312 l 1,0,-1
391.4375 982.684570312 m 1,6,-1
 391.4375 1098.01464844 l 1,7,-1
 522.25 1196.65234375 l 1,8,-1
 655.075195312 1098.01464844 l 1,9,-1
 655.075195312 982.684570312 l 1,10,-1
 522.25 884.047851562 l 1,11,-1
 391.4375 982.684570312 l 1,6,-1
221 65 m 1,12,-1
 286 131 l 1,13,-1
 742 131 l 1,14,-1
 807 65 l 1,15,-1
 742 0 l 1,16,-1
 286 0 l 1,17,-1
 221 65 l 1,12,-1
775 163 m 1,18,-1
 775 619 l 1,19,-1
 840 684 l 1,20,-1
 905 619 l 1,21,-1
 905 163 l 1,22,-1
 840 98 l 1,23,-1
 775 163 l 1,18,-1
EndSplineSet
EndChar

StartChar: sterling
Encoding: 163 163 139
Width: 1028
Flags: W
LayerCount: 2
Fore
SplineSet
123 65 m 1,0,-1
 123 619 l 1,1,-1
 188 684 l 1,2,-1
 253 619 l 1,3,-1
 253 65 l 1,4,-1
 188 0 l 1,5,-1
 123 65 l 1,0,-1
123 814 m 1,6,-1
 123 1271 l 1,7,-1
 188 1336 l 1,8,-1
 253 1271 l 1,9,-1
 253 814 l 1,10,-1
 188 749 l 1,11,-1
 123 814 l 1,6,-1
221 1368 m 1,12,-1
 286 1433 l 1,13,-1
 742 1433 l 1,14,-1
 807 1368 l 1,15,-1
 742 1303 l 1,16,-1
 286 1303 l 1,17,-1
 221 1368 l 1,12,-1
775 65 m 1,18,-1
 775 619 l 1,19,-1
 840 684 l 1,20,-1
 905 619 l 1,21,-1
 905 65 l 1,22,-1
 840 0 l 1,23,-1
 775 65 l 1,18,-1
775 814 m 1,24,-1
 775 1271 l 1,25,-1
 840 1336 l 1,26,-1
 905 1271 l 1,27,-1
 905 814 l 1,28,-1
 840 749 l 1,29,-1
 775 814 l 1,24,-1
EndSplineSet
EndChar

StartChar: grave
Encoding: 96 96 140
Width: 1028
Flags: W
LayerCount: 2
Fore
SplineSet
221 1369 m 1,0,-1
 286 1434 l 1,1,-1
 742 1434 l 1,2,-1
 807 1369 l 1,3,-1
 742 1304 l 1,4,-1
 286 1304 l 1,5,-1
 221 1369 l 1,0,-1
775 815 m 1,6,-1
 775 1271 l 1,7,-1
 840 1336 l 1,8,-1
 905 1271 l 1,9,-1
 905 815 l 1,10,-1
 840 750 l 1,11,-1
 775 815 l 1,6,-1
EndSplineSet
EndChar

StartChar: quotesingle
Encoding: 39 39 141
Width: 1028
Flags: W
LayerCount: 2
Fore
SplineSet
123 815 m 1,0,-1
 123 1271 l 1,1,-1
 188 1336 l 1,2,-1
 253 1271 l 1,3,-1
 253 815 l 1,4,-1
 188 750 l 1,5,-1
 123 815 l 1,0,-1
221 1369 m 1,6,-1
 286 1434 l 1,7,-1
 742 1434 l 1,8,-1
 807 1369 l 1,9,-1
 742 1304 l 1,10,-1
 286 1304 l 1,11,-1
 221 1369 l 1,6,-1
EndSplineSet
EndChar

StartChar: asciitilde
Encoding: 126 126 142
Width: 1028
Flags: W
LayerCount: 2
Fore
SplineSet
221 1369 m 1,0,-1
 286 1434 l 1,1,-1
 742 1434 l 1,2,-1
 807 1369 l 1,3,-1
 742 1304 l 1,4,-1
 286 1304 l 1,5,-1
 221 1369 l 1,0,-1
EndSplineSet
EndChar

StartChar: uni008A
Encoding: 138 138 143
Width: 1028
Flags: W
LayerCount: 2
Fore
SplineSet
123 815 m 1,0,-1
 123 1271 l 1,1,-1
 188 1336 l 1,2,-1
 253 1271 l 1,3,-1
 253 815 l 1,4,-1
 188 750 l 1,5,-1
 123 815 l 1,0,-1
221 65 m 1,6,-1
 286 131 l 1,7,-1
 742 131 l 1,8,-1
 807 65 l 1,9,-1
 742 0 l 1,10,-1
 286 0 l 1,11,-1
 221 65 l 1,6,-1
221 717 m 1,12,-1
 286 782 l 1,13,-1
 742 782 l 1,14,-1
 807 717 l 1,15,-1
 742 652 l 1,16,-1
 286 652 l 1,17,-1
 221 717 l 1,12,-1
221 1369 m 1,18,-1
 286 1434 l 1,19,-1
 742 1434 l 1,20,-1
 807 1369 l 1,21,-1
 742 1304 l 1,22,-1
 286 1304 l 1,23,-1
 221 1369 l 1,18,-1
775 163 m 1,24,-1
 775 619 l 1,25,-1
 840 684 l 1,26,-1
 905 619 l 1,27,-1
 905 163 l 1,28,-1
 840 98 l 1,29,-1
 775 163 l 1,24,-1
EndSplineSet
EndChar
